<svg width="283" height="325" viewBox="0 0 283 325" fill="none" xmlns="http://www.w3.org/2000/svg">
<path d="M71.1918 313.923L73.2762 221.509C73.3935 216.964 69.6859 212.011 64.9324 211.041C62.1971 210.476 55.0505 210.324 51.8603 211.113C46.9949 212.429 46.267 216.786 45.3537 220.851L43.2694 313.264C43.2694 313.264 48.4866 309.264 57.3074 309.341C66.4471 309.338 71.1918 313.923 71.1918 313.923Z" fill="#E7EFF2"/>
<path d="M43.3186 314.832C43.3482 313.583 43.3515 312.227 43.3811 310.978C43.493 308.693 43.4722 306.327 43.584 304.041C43.7517 300.613 43.8132 297.211 43.9546 293.676C44.2101 286.952 44.3329 280.148 44.5883 273.424C44.9896 261.358 44.8856 227.627 45.2474 220.877C45.9392 209.529 69.004 208.341 72.5888 220.099C72.9846 221.243 72.5942 239.741 72.5569 244.154L72.1381 263.45C71.8508 272.327 71.4309 281.123 71.011 289.92C70.7884 294.04 70.6722 298.133 70.556 302.226C70.4135 306.212 70.5363 310.359 70.0484 314.318C69.8861 315.487 71.1589 316.527 72.2749 316.477C73.4699 316.353 74.7482 315.527 74.5914 314.437C74.1748 310.927 74.3963 307.259 74.4051 303.645C74.4139 300.03 74.529 296.389 74.6178 292.641C74.8217 285.252 75.0257 277.864 75.3359 270.449C75.7087 259.18 76.2679 247.752 75.8436 236.454L76.2844 219.072L77.5936 161.397C77.735 157.862 75.8297 154.72 73.0177 152.932C72.4608 152.505 71.9302 152.185 71.506 151.838C69.8878 150.771 68.0833 149.862 66.2251 149.193C62.6151 147.828 58.6049 147.126 54.7251 147.408C50.6063 147.636 46.8033 149.141 45.1468 152.938C45.013 153.31 44.7729 153.708 44.6655 154.186C43.5177 156.389 42.9805 158.78 42.656 161.118C42.2514 163.589 41.9532 166.033 41.894 168.532C41.5892 173.688 41.4971 178.791 41.325 184.027C41.007 194.605 40.7954 205.156 40.5575 215.602C40.0279 236.731 39.631 257.941 39.1014 279.071C38.7538 290.898 38.2999 302.752 38.1913 314.632C38.0773 317.822 43.311 317.995 43.3186 314.832Z" fill="#F6CF3C"/>
<path d="M70.2921 203.055C69.9741 202.682 70.0279 202.443 69.6299 202.202C69.2056 201.856 68.7013 201.642 68.1707 201.322C67.2685 200.867 66.2599 200.439 65.2776 200.118C63.1804 199.395 60.8695 199.176 58.6111 199.17C56.4591 199.138 54.1733 199.477 52.0728 200.109C51.0094 200.372 49.9986 200.848 49.0942 201.298C48.2961 201.721 46.94 202.169 46.6988 203.019C46.5914 203.497 46.883 203.764 47.3609 203.871C48.1843 204.006 49.1161 203.211 49.8079 202.814C50.7123 202.365 51.6431 202.022 52.7065 201.759C54.5943 201.179 56.6674 200.892 58.6868 200.845C60.7061 200.797 62.6981 201.094 64.53 201.657C65.4859 201.873 66.4682 202.194 67.3704 202.648C67.8747 202.862 68.2464 202.996 68.7507 203.21C69.255 203.424 69.574 203.345 70.052 203.453C70.291 203.507 70.451 203.241 70.2921 203.055Z" fill="#E7EFF2"/>
<path d="M72.4148 160.532C71.8589 159.654 70.9304 159.093 70.1082 158.506C69.047 157.865 67.8794 157.251 66.7382 156.743C64.3494 155.753 61.8005 155.029 59.2243 154.65C55.2403 154.055 50.3487 155.264 47.5521 158.101C46.5665 159.135 48.1572 160.548 49.0627 159.647C51.5667 156.995 55.7665 156.182 59.3788 156.644C61.7161 156.969 63.9196 157.666 66.1495 158.469C67.1581 158.897 68.1667 159.325 69.2015 159.859C70.1038 160.314 70.926 160.901 71.8819 161.116C72.2536 161.25 72.6263 160.932 72.4148 160.532Z" fill="#E7EFF2"/>
<path d="M67.9844 223.382C67.8802 233.456 67.8561 243.397 67.7519 253.47C67.6148 266.149 67.0261 278.826 66.5437 291.477C66.2619 298.094 65.9538 304.606 65.7784 311.197C65.6962 312.233 67.3965 312.265 67.4787 311.228C67.88 299.162 68.255 286.989 68.5236 274.843C68.8186 262.803 69.2199 250.737 69.2758 238.643C69.2616 233.566 69.2473 228.489 68.7814 223.411C68.7562 222.853 67.9592 222.824 67.9844 223.382Z" fill="#D8E5E5"/>
<path d="M63.3964 219.888C62.8581 222.731 63.1694 225.815 63.0828 228.659C63.1288 231.583 63.1486 234.4 63.0883 237.351C63.074 243.225 63.086 249.205 62.9654 255.106C62.8305 266.88 62.4829 278.707 61.8964 290.481C61.5083 297.125 61.2528 303.849 60.652 310.545C60.5961 311.688 62.5354 311.773 62.5913 310.63C63.6318 287.003 64.566 263.403 64.5968 239.8C64.5781 236.53 64.5332 233.155 64.5146 229.885C64.4959 226.616 64.77 223.161 64.007 220.076C64.0882 219.491 63.5038 219.41 63.3964 219.888Z" fill="#D8E5E5"/>
<path d="M54.7883 219.759C54.5153 222.762 54.5877 225.792 54.5274 228.742C54.4671 231.693 54.4331 234.749 54.3727 237.7C54.1458 243.626 53.9188 249.553 53.4529 255.426C52.7337 267.119 51.6955 278.891 51.2152 290.639C50.9598 297.363 50.8106 304.06 50.7678 310.732C50.7119 311.875 52.625 311.853 52.5745 310.737C52.1251 298.881 52.9781 286.816 53.671 275.016C54.4702 263.19 55.4021 251.444 55.7497 239.617C55.8111 236.215 56.0051 232.893 55.9602 229.517C55.9416 226.248 56.003 222.846 55.5327 219.575C55.6401 219.097 54.8957 219.281 54.7883 219.759Z" fill="#D8E5E5"/>
<path d="M59.8905 219.4C59.6175 222.403 59.6898 225.434 59.6295 228.384C59.5692 231.334 59.5352 234.391 59.4749 237.341C59.248 243.268 59.021 249.194 58.5551 255.067C57.8358 266.761 56.7976 278.533 56.3174 290.28C56.0619 297.004 55.9128 303.702 55.87 310.373C55.8141 311.516 57.7272 311.495 57.6767 310.378C57.2273 298.522 58.0802 286.457 58.7731 274.657C59.5724 262.831 60.5043 251.085 60.8518 239.258C60.9132 235.856 61.1073 232.534 61.0623 229.158C61.0437 225.889 61.1051 222.487 60.6348 219.216C60.6359 218.765 59.8916 218.949 59.8905 219.4Z" fill="#D8E5E5"/>
<path d="M49.148 222.96C49.229 233.327 49.4965 243.534 49.1259 253.899C48.7257 265.514 47.8738 277.127 47.1546 288.82C46.6843 296.501 46.2139 304.181 45.6109 311.781C45.5287 312.818 47.3617 312.929 47.4176 311.786C48.0886 298.073 48.9986 284.413 49.8022 270.78C50.3592 260.255 50.9162 249.731 50.9151 239.232C50.9283 233.81 50.9151 228.281 49.9449 222.989C49.8134 222.457 49.1491 222.508 49.148 222.96Z" fill="#D8E5E5"/>
<path d="M41.2874 184.5C41.7571 183.919 47.4483 181.322 54.5 180.5M77 188.5C71.0682 180.763 62.0122 179.624 54.5 180.5M54.5 0V180.5" stroke="#0D0842"/>
<path d="M161.963 216.036C161.858 211.44 164.427 207.663 167.864 207.559L176.107 207.287C179.438 207.214 182.27 210.877 182.449 215.335L184.101 278.344L185.819 278.292C186.138 277.04 186.244 275.851 186.287 274.451L182.174 117.557C181.995 111.943 178.665 107.389 174.771 107.514L164.109 107.817C160.216 107.942 157.096 112.578 157.275 118.193L161.388 275.086C161.451 276.455 161.621 277.792 161.971 278.96L163.689 278.908L161.963 216.036Z" fill="#60C697"/>
<path d="M162.059 216.354C161.954 211.759 164.522 207.982 167.959 207.877L176.202 207.605C179.534 207.533 182.365 211.196 182.545 215.653L184.207 278.313L186.488 278.208L183.815 178.604C183.636 172.99 180.306 168.435 176.413 168.561L165.751 168.863C161.857 168.989 158.737 173.625 158.916 179.239L161.589 278.843L163.87 278.738L162.059 216.354Z" fill="#60C697"/>
<path d="M184.027 277.326L181.502 180.916C181.333 176.109 178.576 172.308 175.139 172.412L166.896 172.684C163.564 172.757 160.922 176.672 160.984 181.512L163.509 277.921C163.509 277.921 167.149 273.476 173.536 273.182C180.347 272.76 184.027 277.326 184.027 277.326Z" fill="#E7EFF2"/>
<path d="M179.627 170.026C179.52 173.529 179.869 177.01 179.975 180.449C180.08 183.887 180.461 187.475 180.916 190.924C181.615 197.886 182.239 204.987 182.588 211.938C183.455 226.022 183.621 240.084 183.47 254.242C183.436 262.234 183.159 270.183 182.881 278.132C182.795 280.933 187.039 280.819 187.124 278.017C187.99 249.649 188.049 221.291 185.159 193.123C184.789 189.185 184.281 185.173 183.454 181.257C182.988 179.314 182.447 177.51 181.981 175.568C181.514 173.625 181.08 171.789 180.401 169.91C180.242 169.379 179.574 169.464 179.627 170.026Z" fill="#60C697"/>
<path d="M158.878 112.739C159.271 112.505 159.557 112.304 159.982 112.177L159.95 112.071C159.557 112.304 159.165 112.537 158.878 112.739C158.804 112.877 158.772 112.77 158.878 112.739Z" fill="#F3B953"/>
<path d="M160.215 110.256C158.327 111.284 157.181 113.247 156.904 115.412C156.511 117.959 156.33 120.442 156.149 122.926C155.703 128.38 155.394 133.91 155.191 139.407C154.881 150.72 155.133 161.981 155.491 173.209C155.775 184.576 156.377 195.847 156.523 207.14C156.701 218.538 157.091 229.873 157.757 241.356C158.127 247.608 158.422 253.997 159.036 260.29C159.29 263.453 159.682 266.69 159.936 269.853C160.222 273.122 160.433 276.529 161.249 279.639C161.843 282.006 165.089 281.265 165.196 278.919C165.387 276.086 165.017 273.305 164.784 270.598C164.519 267.786 164.393 265.048 164.234 262.203C163.843 256.653 163.452 251.102 163.166 245.519C162.49 234.386 162.026 223.189 161.805 212.035C161.617 200.987 161.216 190.002 160.921 178.986C160.489 167.895 160.088 156.91 160.112 145.798C160.124 139.664 160.38 133.572 160.742 127.449C160.902 124.509 161.274 121.506 161.508 118.428C161.572 117.484 161.604 116.433 161.699 115.595C161.869 114.618 161.689 113.631 162.379 112.846C163.546 111.34 161.817 109.429 160.215 110.256Z" fill="#60C697"/>
<path d="M179.374 111.687C178.919 110.551 178.07 109.649 177.147 108.884C176.224 108.12 175.27 107.249 174.198 106.76C171.674 105.666 168.799 105.718 166.062 105.844C163.569 106.012 161.33 107.03 159.759 109.12C158.443 110.902 156.841 114.043 158.495 116.092C158.867 116.559 159.673 116.549 160.065 116.316C161.604 115.276 161.467 112.888 162.634 111.382C163.844 109.631 165.637 109.441 167.567 109.325C169.604 109.178 171.779 109.104 173.816 110.114C175.471 111.006 176.955 112.875 179.035 112.483C179.247 112.419 179.438 111.899 179.374 111.687Z" fill="#60C697"/>
<path d="M170.856 109.497C172.84 108.787 175.216 110.157 176.468 111.633C178.09 113.576 178.493 116.462 178.694 119.063C179.265 125.601 179.518 132.234 179.878 138.835C180.554 152.282 180.879 165.718 180.993 179.218C181.056 182.901 181.013 186.615 181.076 190.298C181.054 192.155 181.138 193.981 181.117 195.838C181.159 196.751 181.233 197.77 181.381 198.651C181.562 199.638 182.06 200.529 182.272 201.623C182.452 202.61 184.033 202.483 184.235 201.613C184.436 200.743 184.776 199.947 184.978 199.077C185.179 198.207 185.212 197.156 185.169 196.243C185.191 194.386 185.106 192.56 185.128 190.703C185.097 187.127 184.96 183.582 184.961 180.111C184.793 172.99 184.656 165.975 184.382 158.885C184.182 151.658 183.876 144.462 183.538 137.16C183.401 133.615 183.158 130.102 182.914 126.589C182.735 123.289 182.555 119.988 182.057 116.783C181.559 113.577 180.467 110.318 177.975 108.173C175.546 106.241 172.512 105.762 169.965 107.681C169.074 108.18 169.689 109.846 170.856 109.497Z" fill="#60C697"/>
<path d="M183.411 184.971C183.92 183.199 183.56 181.225 183.263 179.463C182.861 177.733 182.182 175.854 181.175 174.421C178.693 170.769 174.874 169.6 170.822 169.194C168.795 168.992 166.769 168.789 164.828 169.255C162.674 169.785 161.082 171.418 159.904 173.275C157.814 176.331 154.715 182.58 158.268 185.564C158.883 186.074 159.933 186.106 160.379 185.279C160.793 184.345 160.984 183.825 161.154 182.849C161.281 182.116 161.483 181.246 161.717 180.482C162.152 178.848 162.895 177.469 163.744 176.058C164.444 174.922 165.24 174.106 166.545 173.83C168.094 173.597 169.77 173.789 171.309 173.907C174.173 174.205 176.496 175.013 178.172 177.518C179.709 179.95 179.963 183.112 181.65 185.268C182.084 185.947 183.103 185.873 183.411 184.971Z" fill="#60C697"/>
<path d="M179.13 163.351C179.268 162.268 179.385 160.729 178.748 159.763C179.003 159.456 179.152 159.18 179.025 158.755C178.314 156.77 176.299 156.217 174.527 155.707C172.649 155.229 170.761 155.1 168.83 155.216C167.006 155.3 164.756 155.511 163.186 156.445C161.011 157.675 162.018 160.265 162.485 162.207C162.739 163.056 163.662 163.821 164.574 163.779C166.611 163.631 168.818 163.664 170.812 163.761C172.807 163.857 175.045 163.996 176.986 164.687C177.782 165.027 178.96 164.327 179.13 163.351Z" fill="#E7EFF2"/>
<path d="M164.564 112.423C163.938 113.42 164.033 114.895 163.927 116.084C163.884 117.485 163.81 118.78 163.873 120.149C163.862 122.813 163.914 125.689 164.359 128.332C164.72 130.306 167.542 129.692 167.563 127.834C167.574 125.171 167.129 122.528 166.928 119.927C166.791 118.696 166.727 117.327 166.59 116.096C166.484 114.971 166.421 113.602 165.859 112.498C165.562 111.893 164.862 111.871 164.564 112.423Z" fill="#E7EFF2"/>
<path d="M169.572 112.542C168.308 116.044 168.594 120.469 169.219 124.099C169.399 125.086 169.972 125.84 170.99 125.766C171.797 125.756 172.699 124.908 172.656 123.995C172.434 122.095 172.18 120.089 172.064 118.157C171.947 116.226 171.831 114.294 171.396 112.458C171.11 111.503 169.911 111.746 169.572 112.542Z" fill="#E7EFF2"/>
<path d="M174.303 112.512C173.709 114.773 174.048 117.447 174.047 119.761C174.047 120.918 174.184 122.149 174.216 123.412C174.247 124.675 174.247 125.832 174.841 127.042C175.308 127.827 176.602 127.902 177.016 126.969C177.472 125.791 177.398 124.772 177.399 123.615C177.367 122.352 177.335 121.089 177.166 119.752C176.923 117.396 177.04 114.7 176.16 112.535C175.736 111.505 174.579 111.504 174.303 112.512Z" fill="#E7EFF2"/>
<path d="M175.54 179.927C175.444 183.079 175.761 186.454 175.909 189.648C176.025 192.737 176.247 195.793 176.363 198.882C176.627 205.165 177.029 211.522 177.293 217.805C177.895 230.233 177.934 242.714 178.292 255.099C178.46 262.221 178.597 269.236 178.627 276.283C178.648 277.896 181.067 277.866 181.046 276.252C180.868 263.697 180.553 251.068 179.993 238.395C179.73 232.112 179.328 225.755 179.064 219.472C178.8 213.189 178.536 206.906 178.135 200.549C177.891 197.036 177.648 193.523 177.405 190.01C177.194 186.603 177.056 183.058 176.527 179.747C176.442 179.078 175.487 179.364 175.54 179.927Z" fill="#D8E5E5"/>
<path d="M171.467 175.595C172.363 201.353 173.259 227.111 173.911 252.826C174.111 260.054 174.311 267.281 174.511 274.509C174.532 276.122 176.919 275.985 176.93 274.478C176.14 248.688 175.032 222.994 173.786 197.225C173.448 189.923 173.036 182.759 172.592 175.489C172.401 174.852 171.383 174.926 171.467 175.595Z" fill="#D8E5E5"/>
<path d="M167.234 177.672C166.512 180.665 166.935 184.008 167.02 186.991C167.136 190.079 167.252 193.167 167.368 196.256C167.557 202.677 167.853 209.066 168.042 215.487C168.464 228.085 168.811 240.82 169.233 253.418C169.433 260.645 169.601 267.767 169.801 274.994C169.854 276.714 172.378 276.651 172.326 274.932C171.663 249.567 170.65 224.191 169.393 198.772C169.256 195.227 169.013 191.714 168.876 188.169C168.792 186.344 168.739 184.625 168.548 182.831C168.358 181.037 168.305 179.318 167.796 177.62C167.733 177.407 167.383 177.397 167.234 177.672Z" fill="#D8E5E5"/>
<path d="M164.167 182.872C164.05 184.41 163.869 185.737 163.858 187.244C163.847 188.751 163.73 190.29 163.751 191.903C163.729 194.917 163.707 197.931 163.686 200.945C163.716 206.835 163.715 212.619 163.957 218.446C164.262 230.269 164.812 242.135 165.467 253.968C165.752 260.708 166.174 267.521 166.672 274.197C166.703 275.46 168.666 275.45 168.496 274.113C166.836 250.435 166.226 226.789 165.478 203.069C165.373 199.63 165.299 196.297 165.088 192.891C165.035 191.171 164.982 189.452 164.961 187.839C164.909 186.119 164.75 184.432 164.591 182.744C164.559 182.638 164.209 182.627 164.167 182.872Z" fill="#D8E5E5"/>
<path d="M155.081 145C155.081 145 161.11 140.394 168.788 139.743M183.788 145C178.842 140.434 173.504 139.343 168.788 139.743M168.788 1V139.743" stroke="#0D0842"/>
<path d="M248.584 312.324L239.509 207.898C239.015 202.775 238.855 192.741 243.706 192.266L259.619 190.88C264.47 190.405 269.355 200.108 269.849 205.231L278.105 309.578C278.105 309.578 272.257 305.508 262.941 306.161C253.22 306.841 248.584 312.324 248.584 312.324Z" fill="#E7EFF2"/>
<path d="M264.302 129.878C260.643 126.062 253.27 123.456 247.339 124.007C242.488 124.483 231.516 130.545 230.563 136.312C230.215 137.151 230.02 138.251 229.942 139.07C229.688 141.26 229.704 143.431 229.595 145.746C229.644 152.258 229.963 158.751 230.417 165.235C231.247 179.022 232.616 192.771 233.446 206.558C234.316 218.985 235.465 231.528 236.74 243.927C237.997 256.055 239.118 268.193 240.239 280.331C240.828 286.805 241.677 293.125 242.671 299.571C242.929 301.318 243.178 302.929 243.571 304.666C243.58 304.801 243.599 305.071 243.609 305.207C243.836 308.448 244.198 311.681 245.36 314.721C245.86 316.044 247.094 316.229 248.378 315.189C248.889 314.746 248.999 312.43 248.961 311.89L239.968 210.581C239.874 209.23 239.77 207.744 239.675 206.394C239.768 201.908 244.075 197.534 251.475 194.708C259.801 191.546 266.522 198.406 268.099 201.553C268.568 204.371 269.046 207.323 269.515 210.141L271.3 229.834C271.319 230.104 271.329 230.239 271.348 230.509C271.707 235.642 272.076 240.91 272.57 246.033C273.424 256.29 274.413 266.536 275.267 276.793C275.808 282.592 276.224 288.535 276.631 294.343C277.056 300.422 277.203 306.384 277.898 312.443C278.203 314.865 281.569 314.494 281.679 312.179C281.715 306.882 281.336 301.479 280.958 296.076C280.589 290.808 280.221 285.54 279.717 280.282C278.853 269.89 277.865 259.644 277.002 249.252C276.148 238.996 275.564 228.721 274.845 218.455C274.703 216.429 274.436 214.547 274.159 212.531C274.692 210.457 274.378 207.9 274.226 205.739C273.912 203.182 273.462 200.635 273.273 197.933C272.693 191.594 272.798 185.343 272.354 178.994C271.465 166.297 269.892 153.512 268.462 140.853C268.11 137.756 267.622 134.668 265.948 132.07C265.496 131.423 265.043 130.776 264.601 130.264C264.456 130.139 264.447 130.004 264.302 129.878Z" fill="#F46041"/>
<path d="M243.65 205.029C244.134 217.755 246.238 230.367 247.388 242.91C248.024 250.06 248.381 257.093 248.747 264.261C249.104 271.295 249.595 278.319 249.952 285.352C250.384 293.466 250.952 301.571 251.384 309.685C251.46 310.765 253.215 310.642 253.139 309.562C252.282 295.369 251.424 281.177 250.701 266.975C249.88 253.323 249.186 239.526 247.286 225.95C246.254 218.964 245.087 211.987 244.335 205.117C244.297 204.577 243.622 204.624 243.65 205.029Z" fill="#D8E5E5"/>
<path d="M248.462 198.177C248.177 201.862 248.693 205.355 249.083 208.993C249.464 212.495 249.845 215.998 250.1 219.645C250.872 226.785 251.508 233.934 252.009 241.093C253.263 255.122 254.256 269.305 255.374 283.344C255.951 291.583 256.383 299.697 257.23 307.918C257.296 308.863 258.782 308.76 258.715 307.814C257.974 293.342 256.692 278.908 255.545 264.464C254.426 250.426 253.298 236.252 251.91 222.233C251.491 218.19 251.207 214.138 250.788 210.095C250.379 206.187 250.095 202.135 249.011 198.274C248.983 197.869 248.578 197.898 248.462 198.177Z" fill="#D8E5E5"/>
<path d="M253.959 197.249C254.836 211.712 256.523 226.118 257.67 240.561C258.808 254.87 259.665 269.062 260.398 283.399C260.84 291.648 261.147 299.907 261.589 308.156C261.664 309.236 263.419 309.113 263.344 308.033C262.004 279.214 260.665 250.396 257.706 221.691C256.859 213.47 255.877 205.259 254.634 197.202C254.471 196.806 253.931 196.844 253.959 197.249Z" fill="#D8E5E5"/>
<path d="M258.751 197.864C258.871 201.52 259.667 205.13 260.057 208.767C260.447 212.405 260.973 216.033 261.363 219.671C262.125 226.676 262.887 233.681 263.378 240.705C264.497 254.743 265.22 268.945 266.068 283.002C266.491 290.981 267.059 299.085 267.617 307.055C267.702 308.271 269.592 308.138 269.507 306.923C267.376 278.431 266.741 249.971 263.53 221.555C263.111 217.512 262.558 213.479 262.004 209.445C261.46 205.547 260.896 201.379 259.821 197.653C259.504 196.997 258.704 197.189 258.751 197.864Z" fill="#D8E5E5"/>
<path d="M265.025 200.275C264.866 203.816 265.256 207.453 265.511 211.1C265.757 214.612 266.013 218.259 266.394 221.762C267.02 228.776 267.657 235.926 268.148 242.95C269.257 256.853 270.376 270.891 271.35 284.804C271.624 288.721 271.899 292.639 272.038 296.565C272.18 298.591 272.177 300.492 272.319 302.518C272.461 304.544 272.468 306.58 272.879 308.587C273.052 309.118 273.862 309.061 273.96 308.511C274.398 305.087 273.873 301.459 273.772 298.073C273.526 294.561 273.405 290.904 273.16 287.392C272.668 280.368 272.167 273.209 271.675 266.185C270.547 252.012 269.428 237.974 268.165 223.81C267.891 219.892 267.482 215.985 267.072 212.077C266.663 208.169 266.514 204.107 265.691 200.093C265.662 199.688 265.132 199.861 265.025 200.275Z" fill="#D8E5E5"/>
<path d="M230.599 168.5C230.599 168.5 238.88 159.794 250.599 159.403M271.599 168.5C264.11 161.359 256.863 159.193 250.599 159.403M250.599 159.403V0" stroke="#0D0842"/>
</svg>
