<svg width="426" height="164" viewBox="0 0 426 164" fill="none" xmlns="http://www.w3.org/2000/svg">
<path d="M321.753 113.59C321.503 114.902 320.393 115.911 319.137 115.956C317.35 116.024 314.38 115.953 310.076 115.62C306.671 115.325 303.95 114.782 302.264 114.255C301.095 113.911 300.433 112.766 300.602 111.495C300.602 111.495 304.038 86.44 305.92 74.076C307.253 65.3002 312.774 38.7419 312.774 38.7419C313 37.491 313.971 36.5038 315.194 36.3764C317.086 36.2055 320.072 36.0717 323.902 36.4471C327.732 36.8225 330.578 37.5499 332.377 38.1172C333.49 38.441 334.128 39.6478 333.925 40.8371C333.925 40.8371 330.228 67.9011 328.743 76.9029C327.137 86.2125 321.753 113.59 321.753 113.59Z" fill="#4092B5"/>
<path d="M312.161 109.558C315.818 109.94 319.109 108.262 319.512 105.81C319.914 103.358 317.276 101.06 313.619 100.678C309.961 100.296 306.67 101.974 306.268 104.426C305.865 106.878 308.504 109.176 312.161 109.558Z" fill="#82D0E4"/>
<path d="M314.859 45.1886C312.616 60.537 310.374 75.8853 308.131 91.2337L314.859 45.1886Z" fill="#FFA27A"/>
<path d="M314.534 45.1811C313.835 48.1374 313.438 51.1321 312.986 54.1068C312.534 57.0816 312.081 60.0563 311.605 63.0923C310.701 69.0418 309.772 75.0526 308.812 80.9822C308.249 84.4055 307.743 87.8488 307.18 91.2721C306.986 92.5964 308.907 92.724 309.126 91.3385C310.768 79.3797 312.409 67.4209 314.027 55.5234C314.51 52.1413 315.04 48.6369 315.276 45.2364C315.354 44.7067 314.668 44.6713 314.534 45.1811Z" fill="#82D0E4"/>
<path d="M328.257 47.3501C325.973 62.6637 323.364 77.9998 320.532 93.256L328.257 47.3501Z" fill="#FFA27A"/>
<path d="M328.141 47.285C327.622 48.6304 327.413 50.1565 327.141 51.5204C326.821 53.0067 326.613 54.5328 326.349 56.039C325.821 59.0514 325.349 62.0837 324.844 65.035C323.788 71.0597 322.732 77.0845 321.644 83.0282C321.03 86.4274 320.36 89.8067 319.747 93.2059C319.513 94.3054 321.127 94.3957 321.361 93.2963C323.584 81.2866 325.673 69.2982 327.403 57.2514C327.659 55.6029 327.914 53.9545 328.114 52.2861C328.369 50.6377 328.672 48.867 328.522 47.2824C328.458 47.1202 328.212 47.1016 328.141 47.285Z" fill="#82D0E4"/>
<path d="M398.216 112.295C398.288 113.131 397.771 114.021 396.989 114.299C395.62 114.837 393.31 115.545 390.093 116.09C387.072 116.617 385.085 116.658 383.904 116.562C383.096 116.494 382.456 115.855 382.384 115.019C382.384 115.019 378.649 81.8611 377.665 70.7158C376.612 58.94 374.356 23.5699 374.356 23.5699C374.303 22.671 374.879 21.7958 375.721 21.5327C376.915 21.1548 378.776 20.6738 381.778 20.21C385.055 19.6796 387.216 19.4789 388.513 19.3995C389.417 19.3566 390.116 20.0107 390.229 20.9246C390.229 20.9246 393.119 50.4633 395.256 68.5066C397.735 89.4968 398.465 115.559 398.216 112.295Z" fill="#F3B953"/>
<path d="M391.258 95.5684C391.687 94.9879 391.937 94.1565 392.149 93.453C392.283 93.0053 392.358 92.5428 392.177 92.0853C391.996 91.6278 391.678 91.4114 391.265 91.5147C390.989 91.5836 389.672 92.1494 389.672 92.1494C389.455 92.2331 389.338 92.4102 389.261 92.666C389.165 92.9858 389.247 93.3498 389.446 93.5367C389.605 93.645 389.783 93.6892 389.92 93.6548L391.022 93.1726C390.953 94.4615 390.229 95.1749 389.676 95.1061C389.004 95.0077 388.425 94.1764 388.122 93.2761C387.857 92.248 387.885 90.8803 388.312 89.8866C388.525 89.3897 388.837 88.9863 389.172 88.9321C389.388 88.8485 389.607 88.9715 389.786 89.2223C390.025 89.488 390.301 89.4191 390.477 89.2567C390.751 88.9812 390.865 88.3909 390.526 88.0318C390.108 87.5153 389.593 87.3185 389.061 87.3923C388.47 87.4514 387.881 87.9237 387.571 88.5338C386.89 89.7391 386.61 91.7315 386.939 93.3942C387.228 94.9783 388.283 96.1343 389.429 96.3507C389.488 96.3655 389.548 96.3802 389.666 96.4097C390.239 96.4146 390.829 96.1489 391.258 95.5684Z" fill="white"/>
<path d="M393.696 107.305L393.614 106.941C393.451 106.214 393.307 105.424 393.105 104.824C392.577 102.771 391.915 101.165 391.038 99.849C390.899 99.6771 390.681 99.5543 390.466 99.6378C390.25 99.7213 390.074 99.8834 390.017 100.075C389.938 100.124 389.9 100.252 389.881 100.316C389.272 102.978 389.156 105.694 389.434 108.371C389.435 108.577 389.575 108.749 389.752 108.793C389.811 108.808 389.87 108.823 389.929 108.837C390.048 108.867 390.264 108.783 390.361 108.67C390.537 108.508 390.594 108.317 390.593 108.11C390.489 107.398 390.463 106.637 390.496 105.89C391.046 105.753 391.577 105.679 392.088 105.669C392.21 106.111 392.313 106.617 392.415 107.123C392.436 107.265 392.516 107.423 392.537 107.565C392.597 107.786 392.737 107.958 392.914 108.002C393.092 108.046 393.367 107.978 393.483 107.801C393.699 107.717 393.757 107.526 393.696 107.305ZM390.877 101.868C391.218 102.639 391.579 103.552 391.863 104.515C391.41 104.54 390.998 104.643 390.605 104.682C390.617 103.793 390.708 102.855 390.877 101.868Z" fill="white"/>
<path d="M387.867 83.9881C388.792 83.8751 389.255 82.7546 389.428 82.1797C389.756 81.3 389.946 80.4548 389.978 79.5015C390.011 78.7545 389.926 77.9781 389.723 77.1722C389.538 76.3024 389.218 75.6734 388.762 75.2853C388.306 74.8971 387.714 74.7497 387.104 74.8726C386.357 75.0299 385.692 75.5508 385.244 76.1946C385.087 76.2929 385.029 76.4845 384.972 76.6762C384.689 78.2536 384.762 79.9195 385.25 81.8949C385.434 82.7647 385.833 83.3445 386.289 83.7327C386.547 83.9342 386.843 84.0079 387.158 84.0177C387.473 84.0275 387.67 84.0078 387.867 83.9881ZM387.127 82.6368C386.81 82.4206 386.649 81.8998 386.527 81.4575C386.12 79.8457 386.03 78.4501 386.217 77.1921C386.391 76.8235 386.743 76.4992 387.175 76.3321C387.391 76.2485 387.666 76.1797 387.924 76.3811C388.241 76.5973 388.383 77.1821 388.505 77.6244C388.608 78.1305 388.691 78.7006 388.715 79.2559C388.701 79.9389 388.628 80.6072 388.436 81.2461C388.34 81.5655 388.244 81.8849 388.089 82.1896L388.07 82.2535C388.031 82.3812 387.895 82.622 387.817 82.6712C387.739 82.7203 387.62 82.6909 387.561 82.6761C387.502 82.6614 387.502 82.6614 387.443 82.6466C387.383 82.6319 387.246 82.6663 387.186 82.6516L387.127 82.6368Z" fill="white"/>
<path d="M385.987 71.3031C386.046 71.3178 386.106 71.3326 386.165 71.3474C386.343 71.3917 386.501 71.2932 386.658 71.1946C386.835 71.032 386.893 70.8399 386.91 70.5689L386.443 66.598C386.501 66.4058 386.54 66.2777 386.519 66.1348L388.412 63.0259C388.548 62.7845 388.566 62.5135 388.486 62.3559C388.365 62.1194 388.206 62.011 387.949 62.016C387.751 62.0357 387.594 62.1342 387.477 62.3116L385.641 65.2284C384.785 64.4648 383.869 63.6864 382.914 63.0361C382.755 62.9277 382.517 62.8687 382.281 63.0165C382.064 63.1002 381.928 63.3417 381.851 63.5979C381.852 63.8048 381.913 64.0265 382.073 64.1349C383.127 64.8787 384.142 65.7507 385.099 66.6079L385.608 70.8646C385.669 71.0863 385.808 71.2587 385.987 71.3031Z" fill="white"/>
<path d="M382.712 40.1849C383.856 39.9876 384.939 39.7756 386.043 39.4996C386.654 39.3763 387.239 38.4902 386.918 37.8604C385.557 35.3902 384.058 32.9545 382.697 30.4844C382.336 29.7758 381.331 29.9386 381.121 30.8491C380.798 32.557 380.338 34.2995 379.778 35.9484C379.547 36.7163 379.238 37.5334 378.948 38.2865C378.657 39.0396 378.229 39.8272 378.314 40.6048C378.337 40.9542 378.752 41.0574 379.007 40.8457C379.085 40.7965 379.183 40.6832 379.262 40.634C379.321 40.6487 379.321 40.6487 379.38 40.6635C380.447 40.7222 381.628 40.3969 382.712 40.1849Z" fill="white"/>
<path d="M385.666 40.846C385.059 40.9068 379.586 41.9436 380.12 42.9936C380.49 43.7205 381.722 43.5333 382.45 43.5028C383.582 43.4318 384.795 43.3102 385.925 43.0271C387.258 42.7237 386.959 40.6739 385.666 40.846Z" fill="white"/>
<path d="M384.827 44.657C384.645 44.4032 384.243 44.2341 383.944 44.3685C383.464 44.4581 383.065 44.707 382.808 45.1301C382.552 45.5532 382.675 46.0011 383.077 46.1703C383.198 46.2001 383.298 46.2947 383.438 46.2598C383.499 46.2747 383.499 46.2747 383.499 46.2747C383.559 46.2897 383.679 46.3195 383.739 46.3344C384.18 46.3742 384.6 46.2696 384.917 45.8614C385.094 45.4881 385.05 44.9905 384.827 44.657Z" fill="white"/>
<path d="M350.59 112.546C350.601 113.944 349.58 115.227 348.274 115.527C346.908 115.817 344.962 116.204 342.699 116.336C340.303 116.51 338.467 116.384 337.138 116.215C335.808 116.046 334.864 114.948 334.868 113.486C334.868 113.486 334.461 85.0174 334.454 75.5064C334.515 64.8105 335.177 32.8073 335.177 32.8073C335.181 31.3449 336.201 30.0626 337.553 29.8365C339.053 29.5035 341.104 29.2018 343.248 29.0494C345.005 28.9615 347.034 29.0548 348.556 29.1914C349.9 29.2963 350.89 30.4691 350.886 31.9315C350.886 31.9315 351.59 63.6446 351.542 74.2765C351.549 83.7875 350.59 112.546 350.59 112.546Z" fill="#FFA27A"/>
<path d="M349.171 108.513C349.171 108.513 347.156 109.516 343.757 109.803C340.496 110.047 338.446 109.148 338.446 109.148C337.6 109.204 336.848 108.531 336.862 107.586L336.893 99.1969C336.892 98.3168 337.486 97.9464 338.394 97.9017C338.394 97.9017 340.296 98.301 343.619 98.068C347.066 97.8566 349.057 97.256 349.057 97.256C349.904 97.2005 350.741 97.4818 350.741 98.362L350.71 106.751C350.758 107.707 350.079 108.469 349.171 108.513Z" fill="#F9EFE8"/>
<path d="M338.198 32.8414C337.907 33.9174 337.908 35.0452 337.791 36.1523C337.72 37.3337 337.707 38.5254 337.707 39.6532C337.623 42.0262 337.596 44.4096 337.628 46.8034C337.589 51.5063 337.608 56.2196 337.614 60.9968C337.603 61.3267 337.885 61.7083 338.235 61.7705C338.351 61.7912 338.482 61.748 338.67 61.7151C339.003 61.5752 339.202 61.2125 339.226 60.8187C339.018 56.1383 338.94 51.4146 338.921 46.7014C338.934 44.3819 338.888 42.052 338.843 39.7221C338.856 38.5304 338.855 37.4026 338.81 36.2005C338.81 35.0727 338.809 33.9449 338.562 32.8396C338.428 32.6168 338.239 32.6497 338.198 32.8414Z" fill="#F9EFE8"/>
<path d="M341.882 32.4405C341.584 32.9846 341.608 33.7187 341.543 34.3042C341.496 35.0918 341.448 35.8793 341.459 36.6773C341.449 38.135 341.367 39.6463 341.358 41.104C341.266 44.073 341.247 46.9885 341.214 49.9678C341.181 52.9472 341.161 55.8626 341.07 58.8316C341.063 59.4275 340.913 60.1305 341.297 60.5967C341.578 60.9784 342.045 61.0612 342.405 60.7935C342.968 60.429 342.809 59.4721 342.199 59.4964C342.068 59.5396 341.924 59.6467 341.883 59.8384L341.87 59.9023C341.815 60.158 342.021 60.3272 342.281 60.2408C342.281 60.2408 342.34 60.2512 342.353 60.1872C342.237 60.1665 342.075 60.0716 341.959 60.0509C341.986 59.923 342.014 59.7952 342.041 59.6674C342.23 59.6346 342.418 59.6017 342.593 59.6328L342.535 59.6224C342.624 59.771 342.727 59.8556 342.816 60.0041C342.806 60.334 342.806 60.334 342.816 60.0041C342.83 59.9402 342.772 59.9299 342.785 59.8659C342.782 59.6 342.706 59.3875 342.761 59.1319C342.768 58.536 342.716 57.9298 342.723 57.3339C342.678 56.1318 342.705 54.8762 342.731 53.6205C342.7 51.2267 342.74 48.7793 342.708 46.3855C342.676 43.9916 342.716 41.5443 342.626 39.1401C342.581 37.938 342.58 36.8101 342.535 35.608C342.542 35.0122 342.49 34.4059 342.425 33.8636C342.418 33.3317 342.411 32.7997 342.143 32.3541C342.04 32.2695 341.91 32.3127 341.882 32.4405Z" fill="#F9EFE8"/>
<path d="M345.315 32.8555C345.206 33.3664 345.052 33.803 345.046 34.3985C344.995 34.9197 345.002 35.4513 344.938 36.0364C344.881 37.1532 344.824 38.2699 344.825 39.397C344.782 41.5769 344.74 43.7569 344.626 45.9903C344.469 50.4037 344.415 54.9017 343.954 59.3271C343.829 60.7631 345.744 60.8397 345.811 59.3933C345.865 54.8953 346.152 50.4388 346.192 46.0046C346.19 43.7504 346.246 41.5066 346.172 39.3059C346.158 38.2427 346.143 37.1795 346.012 36.0955C345.96 35.4896 345.895 34.9476 345.843 34.3418C345.777 33.7998 345.626 33.3751 345.489 32.8866C345.588 32.7054 345.342 32.7278 345.315 32.8555Z" fill="#F9EFE8"/>
<path d="M338.052 65.2381C339.239 65.7212 340.715 65.4863 342.05 65.2971C343.448 65.1187 344.861 64.8731 346.242 64.4824C347.405 64.1939 346.842 62.3529 345.741 62.6521C344.5 62.997 343.197 63.3313 341.923 63.5311C340.712 63.7416 339.421 63.7291 338.228 64.152C337.794 64.3566 337.646 65.0287 338.052 65.2381Z" fill="#F9EFE8"/>
<path d="M414.827 113.881C414.801 114.58 414.325 115.25 413.658 115.423C412.604 115.733 409.976 116.014 407.095 116.269C404.099 116.481 402.411 116.408 401.421 116.246C400.742 116.13 400.324 115.547 400.293 114.826C400.293 114.826 400.054 87.0853 400.133 77.8277C400.208 67.1503 400.843 34.9199 400.843 34.9199C400.812 34.1991 401.371 33.4893 402.095 33.3382C403.263 33.0717 405.237 32.6145 407.814 32.4565C409.858 32.3092 412.111 32.4538 413.52 32.5622C414.224 32.6165 414.757 33.2436 414.731 33.9427C414.731 33.9427 415.321 65.2905 415.545 75.7266C415.896 93.0167 414.827 113.881 414.827 113.881Z" fill="#005E32"/>
<path d="M401.322 38.8717C402.395 39.0547 403.542 38.8999 404.662 38.8083C405.809 38.6535 407.015 38.5206 408.135 38.429C409.256 38.3373 409.186 36.4102 408.012 36.6282C406.839 36.8461 405.692 37.0009 404.518 37.2189C403.43 37.3956 402.283 37.5504 401.263 38.0455C400.897 38.2737 400.945 38.8035 401.322 38.8717Z" fill="#F9EFE8"/>
<path d="M401.674 42.5511C402.547 42.8783 403.738 42.4503 404.681 42.2933C405.909 42.0977 407.222 41.861 408.444 41.5177C409.355 41.276 409.36 39.8212 408.359 39.9564C407.274 40.1326 406.136 40.4347 405.056 40.7587C404.516 40.9207 404.003 41.0197 403.463 41.1817C403.008 41.3025 402.415 41.5904 402.012 41.5854C401.525 41.6215 401.208 42.3766 401.674 42.5511Z" fill="#F9EFE8"/>
<path d="M402.856 46.3956C403.622 46.8294 404.627 46.6939 405.462 46.6409C406.44 46.5687 407.45 46.5816 408.46 46.5945C409.646 46.6733 410.033 44.6219 408.821 44.6063C407.725 44.6347 406.572 44.6411 405.509 44.7547C404.562 44.9122 403.472 45.0891 402.75 45.843C402.585 46.0741 402.708 46.2665 402.856 46.3956Z" fill="#F9EFE8"/>
<path d="M404.638 112.472C404.909 112.793 405.005 113.048 405.472 113.223C405.881 113.376 406.374 113.488 406.836 113.515C407.791 113.654 408.683 113.623 409.659 113.55C411.612 113.406 413.549 112.817 415.359 111.888C416.574 111.248 415.925 109.251 414.71 109.892C413.129 110.76 411.394 111.352 409.675 111.584C408.873 111.722 407.982 111.753 407.175 111.742C406.713 111.715 406.31 111.71 405.822 111.746C405.392 111.805 405.137 111.928 404.739 112.071C404.686 112.197 404.607 112.387 404.638 112.472Z" fill="#F9EFE8"/>
<path d="M409.903 106.16C409.862 106.575 409.768 107.114 410.119 107.389C410.266 107.516 410.465 107.519 410.664 107.521C410.889 107.462 410.999 107.359 411.077 107.173C411.291 106.823 411.076 106.383 411.008 106.07C410.913 105.819 410.651 105.65 410.426 105.709C410.196 105.623 409.893 105.868 409.903 106.16Z" fill="#F9EFE8"/>
<path d="M409.622 100.85L409.654 100.934C409.622 100.85 409.648 100.788 409.617 100.704C409.596 100.912 409.633 101.143 409.696 101.311C409.759 101.479 409.849 101.585 409.965 101.628C410.139 101.693 410.339 101.696 410.507 101.614C410.786 101.43 410.969 100.993 410.759 100.697C410.727 100.613 410.638 100.508 410.522 100.464C410.432 100.359 410.316 100.315 410.116 100.313C410.232 100.356 410.322 100.462 410.38 100.483C410.322 100.462 410.322 100.462 410.29 100.378C410.143 100.25 409.911 100.164 409.716 100.307C409.632 100.348 409.527 100.598 409.622 100.85Z" fill="#F9EFE8"/>
<path d="M405.965 51.7334C405.592 52.3065 405.474 52.9037 405.47 53.5437C405.471 54.3284 406.737 54.3044 406.818 53.4796C406.88 52.861 406.827 52.1995 406.499 51.7201C406.411 51.6156 406.099 51.5701 405.965 51.7334Z" fill="#F9EFE8"/>
<path d="M406.847 58.4012C406.738 58.5029 406.687 58.6262 406.635 58.7494C406.718 58.7093 406.77 58.5861 406.853 58.5459C406.546 58.6449 406.396 59.1594 406.324 59.4891C406.278 59.7571 406.372 60.0064 406.602 60.0924C406.831 60.1784 407.112 60.1411 407.273 59.916C407.459 59.6294 407.537 59.4444 407.469 59.1334C407.457 58.8439 407.337 58.6562 407.051 58.5487C407.165 58.5917 407.197 58.6748 407.311 58.7178C407.223 58.6132 407.134 58.5086 407.019 58.4656C406.962 58.4441 406.905 58.4227 406.847 58.4012Z" fill="#F9EFE8"/>
<path d="M373.499 113.202C373.5 114.068 372.887 114.891 372.098 115.085C370.522 115.472 367.589 116.086 363.859 116.359C360.248 116.653 357.675 116.465 356.282 116.285C355.549 116.222 355.014 115.529 355.013 114.663L354.943 29.124C354.942 28.2587 355.495 27.4245 356.284 27.231C357.934 26.7904 360.867 26.1768 364.164 25.8938C366.76 25.6866 370.246 25.9696 372.072 26.1589C372.865 26.2325 373.401 26.926 373.401 27.7913L373.499 113.202Z" fill="#F46041"/>
<path d="M367.846 40.8755L357.86 41.4494C357.009 41.5054 356.393 40.7848 356.392 39.8991L356.38 35.8097C356.394 34.8584 357.091 34.0262 357.927 34.0358L367.914 33.462C368.764 33.4059 369.38 34.1266 369.381 35.0123L369.393 39.1017C369.441 40.0638 368.696 40.8195 367.846 40.8755Z" fill="white"/>
<path d="M357.987 47.776C359.563 47.9782 361.211 47.5616 362.799 47.4152C364.45 47.2796 366.071 47.2791 367.692 47.2786C369.173 47.3241 369.429 44.9841 367.886 44.9278C366.202 44.9175 364.566 44.9856 362.838 45.178C361.25 45.3244 359.426 45.36 357.892 46.1468C357.288 46.5333 357.237 47.6465 357.987 47.776Z" fill="white"/>
<path d="M358.349 51.3882C358.807 51.9571 359.865 51.8595 360.549 51.6973C361.497 51.5107 362.243 51.3593 363.099 51.2968C364.811 51.1719 366.446 51.1037 368.113 51.1812C369.531 51.2155 369.879 48.7554 368.524 48.7317C366.779 48.711 364.942 48.8144 363.215 49.0067C362.344 49.1366 361.551 49.2098 360.665 49.4072C359.856 49.5478 358.846 49.7236 358.245 50.3902C357.969 50.7626 358.004 51.1887 358.349 51.3882Z" fill="white"/>
<path d="M359.818 109.17C359.625 109.474 359.431 109.777 359.359 110.101C359.287 110.426 359.321 110.835 359.369 111.18C359.635 112.234 361.23 111.832 361.174 110.679C361.157 110.474 361.125 110.334 361.169 110.14C361.183 110.075 361.137 110 361.152 109.935C361.152 109.935 361.149 109.666 361.12 109.795C361.147 109.396 361.098 109.051 360.75 108.925C360.417 108.734 360.011 108.867 359.818 109.17Z" fill="white"/>
<path d="M363.895 108.984C363.57 109.872 363.718 111.178 364.268 111.811C364.711 112.358 365.765 111.862 365.864 111.138C365.981 110.618 365.826 110.188 365.671 109.757C365.501 109.391 365.346 108.96 365.026 108.704C364.706 108.447 364.071 108.475 363.895 108.984Z" fill="white"/>
<path d="M368.685 108.979C368.233 109.308 368.042 109.883 368.047 110.424C368.051 110.964 368.267 111.406 368.559 111.793C368.911 112.19 369.683 112.118 370.056 111.574C370.43 111.03 370.455 110.359 370.042 109.952C369.935 109.866 370.088 110.027 370.088 110.027L370.042 109.952L369.996 109.877C369.904 109.726 370.027 110.017 370.042 109.952C370.057 109.887 369.996 109.877 370.01 109.812C369.979 109.671 370.025 109.747 370.01 109.812C370.01 109.812 370.042 109.952 370.01 109.812C370.025 109.747 369.93 109.325 369.979 109.671C369.93 109.325 369.853 109.11 369.564 108.993C369.243 108.737 368.925 108.75 368.685 108.979Z" fill="white"/>
<path d="M201.889 61.9953C200.707 62.0034 199.59 61.1055 199.369 59.8865C199.037 58.1313 198.6 55.1062 198.35 50.2437C198.068 45.9076 198.208 42.7747 198.367 40.8766C198.434 39.6771 199.392 38.7435 200.632 38.71C200.632 38.71 226.974 38.3794 235.735 38.3267C245.13 38.2874 273.283 38.5494 273.283 38.5494C274.523 38.5158 275.61 39.4999 275.801 40.805C276.185 43.2685 276.702 47.2093 276.851 50.2149C277.031 52.9876 276.94 57.1223 276.863 59.6426C276.824 60.9028 275.808 61.8618 274.626 61.8699C274.626 61.8699 248.485 62.3316 238.34 62.4081C226.122 62.3736 201.889 61.9953 201.889 61.9953Z" fill="#66BDC6"/>
<path d="M289.199 76.89C289.199 76.89 290.027 73.9309 289.726 69.4604C289.334 63.9157 288.145 61.9847 288.145 61.9847L184.992 61.1001C184.992 61.1001 184.218 62.9963 184.61 68.541C185.001 74.0857 186.046 76.0054 186.046 76.0054L289.199 76.89Z" fill="#F46041"/>
<path d="M191.102 63.9386C190.489 64.6395 190.518 65.7066 190.492 66.6544C190.438 67.6863 190.412 68.778 190.442 69.8452C190.613 71.9307 190.896 74.2551 191.654 76.2995C192.159 77.6625 194.058 77.1184 193.664 75.7065C193.13 73.7081 192.484 71.7587 192.257 69.6977C192.144 68.7391 192.058 67.6964 192.001 66.7134C191.971 65.7901 192.137 64.8532 191.745 64.017C191.632 63.7781 191.241 63.8054 191.102 63.9386Z" fill="white"/>
<path d="M195.282 63.9493C194.666 64.7959 194.613 65.9747 194.531 67.0935C194.449 68.2124 194.368 69.3312 194.426 70.461C194.429 71.6152 194.571 72.7803 194.714 73.9454C194.8 74.8465 194.776 76.518 195.731 76.9671C196.068 77.1086 196.32 77.0705 196.572 76.8881C197.272 76.2211 196.708 74.879 196.566 74.0025C196.395 72.9218 196.281 71.8165 196.222 70.6868C196.163 69.5571 196.133 68.4873 196.215 67.3684C196.269 66.3339 196.519 65.2858 196.236 64.2541C196.039 63.8349 195.477 63.6471 195.282 63.9493Z" fill="white"/>
<path d="M202.142 68.3221C200.152 68.1668 200.473 71.0167 201.358 72.1631C201.957 72.9962 202.925 73.5958 203.918 73.3822C204.742 73.2426 205.45 72.5698 205.704 71.8033C206.352 69.9901 204.584 67.8428 202.709 67.7839C202.225 67.7753 201.658 67.8766 201.46 68.3271C201.291 68.6925 201.377 69.1652 201.69 69.3934C202.374 69.971 203.452 69.5018 203.995 70.3595C204.48 71.0963 203.631 72.1949 202.919 71.5569C202.235 70.9794 202.118 70.0093 202.685 69.4711C203.025 69.0316 202.568 68.3553 202.142 68.3221Z" fill="white"/>
<path d="M209.89 68.9733C209.748 68.9622 209.633 69.0118 209.491 69.0007C209.633 69.0118 209.805 69.0835 209.891 69.1194C209.748 68.9621 209.462 68.9399 209.291 69.0144C209.177 69.064 209.091 69.1743 209.034 69.1991C209.091 69.1743 209.206 69.1247 209.234 69.0392C208.663 69.141 208.523 70.0071 208.667 70.4568C208.868 71.0279 209.326 71.4143 209.926 71.5193C210.44 71.5885 210.982 71.4259 211.266 71.0095C211.522 70.6786 211.635 70.3366 211.52 69.9476C211.405 69.5586 211.033 69.2082 210.633 69.0894C209.776 68.8766 209.322 70.0985 210.151 70.5429C210.123 70.4822 210.066 70.507 210.037 70.4463C210.209 70.6643 210.209 70.6643 210.037 70.4463C210.037 70.3001 210.036 70.1539 210.036 70.0077C209.979 70.1787 210.149 69.8119 210.093 69.9829C210.121 69.8974 210.15 69.9581 210.093 69.9829C210.036 70.0077 210.036 70.0077 210.093 69.9829C210.15 69.9581 210.15 69.9581 210.093 69.9829C210.093 69.9829 209.95 69.9718 210.036 70.0077C210.15 69.9581 210.036 70.0077 209.979 70.0325C209.893 69.9966 210.122 70.0436 209.979 70.0325C209.836 70.0214 210.122 70.0436 209.979 70.0325L210.007 70.0932L209.979 70.0325L210.007 70.0932L209.979 70.0325C209.979 70.0325 210.036 70.1539 209.979 70.0325C209.95 69.9718 209.95 69.9718 209.921 69.9111C209.95 70.118 209.921 69.7649 209.95 69.8256C209.921 69.9111 209.949 69.6794 209.949 69.6794C209.978 69.5939 209.92 69.4725 209.891 69.4118C209.863 69.4973 209.921 69.6187 209.892 69.7042C209.892 69.558 209.835 69.729 209.921 69.6187C209.977 69.4477 209.977 69.3015 209.891 69.1194C209.891 69.2656 209.891 69.4118 209.892 69.558L209.949 69.5332C210.348 69.3596 210.176 68.9954 209.89 68.9733Z" fill="white"/>
<path d="M278.1 62.0328C277.989 62.9475 278.188 63.7996 278.274 64.7007C278.388 65.6617 278.446 66.6473 278.42 67.5974C278.453 69.5331 278.232 71.5068 277.844 73.4098C277.622 74.5179 279.334 74.9969 279.556 73.8889C279.973 71.9015 280.221 69.8433 280.132 67.7879C280.074 66.8024 279.931 65.7815 279.761 64.845C279.562 63.8486 279.364 62.8522 278.745 61.9674C278.604 61.6679 278.183 61.6353 278.1 62.0328Z" fill="white"/>
<path d="M282.153 61.5521C281.652 61.9161 281.932 62.9447 282.017 63.5554C282.214 64.5487 282.411 65.5421 282.552 66.5599C282.863 68.6552 282.95 70.7045 282.786 72.792C282.648 74.076 284.575 74.5987 284.713 73.3148C284.904 70.9993 284.817 68.6622 284.366 66.2684C284.169 65.1312 283.916 64.0185 283.412 62.9439C283.244 62.7295 282.599 61.2125 282.153 61.5521Z" fill="white"/>
<path d="M298.64 116.708L174.422 115.723C174.422 115.723 173.372 111.137 173.073 106.521C172.745 101.991 173.166 97.2825 173.166 97.2825L297.384 98.2672C297.384 98.2672 298.75 102.196 299.108 107.528C299.496 112.922 298.64 116.708 298.64 116.708Z" fill="#F27E5A"/>
<path d="M184.078 101.454C183.726 106.156 183.654 110.88 185.124 115.579C185.435 116.67 187.507 116.198 187.14 115.131C185.755 110.611 185.883 106.007 186.235 101.45C186.261 100.356 184.103 100.36 184.078 101.454Z" fill="#BB4930"/>
<path d="M192.741 107.386L198.322 102.097C198.694 101.715 199.381 101.708 199.81 102.033L206.251 106.91C206.88 107.367 206.966 108.281 206.451 108.799L200.871 114.088C200.498 114.47 199.812 114.476 199.382 114.151L192.942 109.275C192.283 108.757 192.197 107.843 192.741 107.386Z" fill="#BB4930"/>
<path d="M262.805 100.155C263.761 100.704 264.917 100.645 265.987 100.698C267.201 100.763 268.387 100.914 269.601 100.978C271.972 101.132 274.285 101.311 276.627 101.403C281.397 101.624 286.139 101.783 290.851 101.732C291.891 101.724 291.801 100.053 290.76 100.062C286.077 100.174 281.365 100.077 276.681 99.8926C274.397 99.7751 272.113 99.6577 269.771 99.5655C268.644 99.5376 267.487 99.4481 266.331 99.3585C265.203 99.3306 263.873 99.0197 262.833 99.4739C262.631 99.6365 262.603 100.021 262.805 100.155Z" fill="#BB4930"/>
<path d="M263.369 105.944C264.44 106.145 265.539 106.409 266.638 106.524C267.795 106.613 268.923 106.641 270.079 106.731C272.422 106.823 274.764 106.915 277.106 107.007C281.762 107.13 286.331 107.216 291.015 107.252C292.201 107.254 292.11 105.286 290.866 105.308C286.327 105.284 281.7 105.223 277.102 105.075C274.847 105.019 272.504 104.927 270.249 104.871C269.179 104.818 268.051 104.79 267.01 104.799C265.796 104.735 264.64 104.942 263.425 105.027C262.934 105.018 262.82 105.812 263.369 105.944Z" fill="#BB4930"/>
<path d="M263.825 110.551C264.839 111.075 265.938 111.19 267.037 111.305C268.223 111.456 269.438 111.52 270.595 111.61C272.909 111.789 275.252 111.881 277.595 111.973C282.31 112.07 286.966 112.044 291.651 111.782C292.865 111.698 292.775 109.729 291.531 109.752C286.904 109.988 282.277 110.076 277.649 110.015C275.393 109.96 273.108 109.842 270.852 109.787C269.724 109.759 268.567 109.669 267.41 109.58C266.252 109.49 265.009 109.364 263.91 109.695C263.563 109.847 263.478 110.405 263.825 110.551Z" fill="#BB4930"/>
<path d="M257.488 101.067C257.327 104.457 257.671 107.916 257.986 111.315C258.101 112.708 260.176 112.667 260.033 111.358C259.717 107.959 259.654 104.522 259.198 101.113C259 99.9726 257.542 100.033 257.488 101.067Z" fill="#BB4930"/>
<path d="M284.326 98.6367C284.326 98.6367 285.188 94.1267 284.667 86.5308C284.29 80.7169 282.819 76.2666 282.819 76.2666L190.946 75.7225C190.946 75.7225 190.314 81.165 190.662 86.9177C191.067 92.7928 192.395 98.1178 192.395 98.1178L284.326 98.6367Z" fill="#1A7885"/>
<path d="M216.142 82.8C214.772 82.2266 212.69 81.744 210.923 82.0742C210.552 81.8703 210.096 81.9225 209.754 82.0712C209.413 82.2199 209.214 82.5257 209.243 82.8784C209.395 86.5401 209.575 90.2624 209.84 93.8745C209.87 94.2272 210.07 94.5055 210.355 94.6737C210.555 94.8059 210.783 94.8528 210.983 94.8391C211.182 94.8254 211.439 94.7868 211.667 94.6877C211.923 94.5032 212.065 94.2222 212.035 93.8695C211.918 92.4588 211.8 91.0481 211.711 89.552C213.166 89.7232 214.59 89.5416 215.843 88.9964C216.812 88.575 218.463 87.7102 218.573 86.0544C218.741 84.8118 217.712 83.5057 216.142 82.8ZM216.435 86.0347C216.379 86.4975 215.725 87.0016 214.756 87.4229C213.816 87.7589 212.762 87.8523 211.792 87.6895C211.704 86.4855 211.615 85.2814 211.612 84.1132L211.669 84.0885C212.752 83.9096 214.121 84.1909 215.034 84.5245C215.747 84.7258 216.519 85.3404 216.435 86.0347Z" fill="#82D0E4"/>
<path d="M226.835 82.3888C225.583 81.4769 223.878 81.1992 222.488 81.7316C221.098 82.264 220.22 83.4472 220.167 84.9272C220.167 84.9272 220.196 84.9876 220.139 85.0123C219.83 86.2396 219.719 87.5988 219.751 88.969C219.782 89.757 219.898 90.8718 220.355 91.8385C220.925 92.9012 221.95 93.7664 223.342 94.2527C223.911 94.4423 224.422 94.5111 224.905 94.5194C225.927 94.5114 226.835 94.1162 227.373 93.3722C228.08 92.4086 228.532 91.1923 228.755 89.6382C228.922 88.2544 228.919 86.9446 228.66 85.6732C228.486 84.2921 227.859 83.1085 226.835 82.3888ZM226.596 89.4126C226.429 90.5054 226.147 91.3565 225.666 92.0758C225.411 92.4052 225.241 92.6249 224.815 92.5918C224.389 92.5588 223.906 92.4049 223.366 92.1302C222.057 91.3886 221.94 89.9827 221.994 88.6482C222.019 87.1078 222.214 85.7844 222.609 84.5928C222.694 84.483 222.693 84.3374 222.636 84.2166C222.834 83.9119 223.146 83.7033 223.515 83.6155C224.224 83.3795 225.162 83.6268 225.703 84.1926C226.329 84.7941 226.473 85.6782 226.561 86.5871C226.762 87.5921 226.736 88.5504 226.596 89.4126Z" fill="#82D0E4"/>
<path d="M238.546 81.5611C236.101 81.6045 233.684 81.5627 231.239 81.3148C230.613 81.2954 230.273 81.5894 230.217 81.9055C230.104 82.2463 230.218 82.6338 230.475 82.8868C230.453 85.7397 230.461 88.6531 230.61 91.4318C230.61 91.5775 230.582 91.6627 230.639 91.7837C230.612 92.3059 230.613 92.8885 231.013 93.4438C231.44 94.0596 232.066 94.2247 232.692 94.244C232.834 94.2551 232.891 94.2303 233.033 94.2413C233.886 94.1618 234.796 94.2033 235.62 94.2089C236.587 94.2256 237.553 94.2424 238.492 94.1986C238.946 94.1465 239.259 93.9377 239.428 93.5722C239.57 93.2918 239.512 92.8795 239.312 92.6019C239.112 92.3243 238.742 92.1208 238.288 92.1729C237.378 92.2772 236.468 92.2357 235.558 92.1943C234.933 92.1749 234.251 92.1802 233.625 92.1609C233.568 92.1856 233.483 92.1499 233.426 92.1746C233.284 92.1636 233.142 92.1525 233.028 92.202C232.998 91.5588 232.94 91.0009 232.91 90.3577C232.88 89.8602 232.85 89.3627 232.878 88.8405L237.626 88.8883C238.052 88.9214 238.421 88.6879 238.563 88.4076C238.704 88.1273 238.675 87.7754 238.532 87.473C238.304 87.1349 237.934 86.9315 237.536 86.9589L232.759 86.9963C232.757 85.8309 232.754 84.6656 232.751 83.5002C234.741 83.6546 236.732 83.6633 238.693 83.6115C239.091 83.5841 239.489 83.411 239.602 83.0702C239.743 82.7899 239.714 82.4381 239.514 82.1605C239.314 81.7371 238.972 81.5941 238.546 81.5611Z" fill="#82D0E4"/>
<path d="M253.612 82.4901C253.583 82.2835 253.497 82.1018 253.411 81.92C253.41 81.6281 253.21 81.3499 252.953 81.0964C252.553 80.832 251.955 80.7272 251.5 81.0713C249.793 82.5444 248.287 84.1496 246.895 85.8513C245.894 84.1684 245.064 82.849 244.263 81.5903C244.092 81.3727 243.949 81.2156 243.721 81.1688C243.464 80.9153 242.979 80.761 242.552 80.8739C242.039 80.9509 241.727 81.3061 241.728 81.744C241.537 85.4068 241.632 89.2376 241.725 92.4846C241.784 93.0437 242.184 93.4542 242.811 93.4736C243.438 93.493 243.949 93.124 243.948 92.5402C243.885 90.0836 243.822 87.481 243.844 84.9143C244.445 85.8948 245.074 86.936 245.904 88.2553C246.104 88.5335 246.389 88.7016 246.76 88.7595C247.187 88.7927 247.643 88.5945 247.87 88.3494C248.949 86.857 250.199 85.4362 251.592 84.0264C251.681 85.23 251.769 86.4335 251.858 87.637C252.004 89.3996 252.094 91.187 252.241 92.9496C252.299 93.5087 252.785 93.9549 253.44 93.889C254.067 93.9084 254.55 93.4789 254.492 92.9198C254.345 91.1572 254.198 89.3946 254.109 87.6072C253.877 86.1007 253.787 84.3133 253.612 82.4901Z" fill="#82D0E4"/>
<path d="M265.89 88.8698C264.779 86.9514 261.967 85.919 260.774 85.5647C260.604 85.4933 260.377 85.4466 260.15 85.3999C259.269 85.1281 257.963 84.8231 257.621 84.244C257.564 84.1233 257.507 84.0026 257.648 83.7227C257.818 83.3578 258.157 83.0642 258.64 82.9271C259.774 82.5789 261.42 82.8811 262.415 83.3944C262.784 83.5976 263.267 83.6059 263.578 83.3975C263.89 83.189 264.003 82.8487 263.973 82.4975C263.944 82.1462 263.745 81.869 263.375 81.6659C261.585 80.7709 259.343 80.5096 257.642 81.1047C256.65 81.464 255.828 82.1855 255.518 82.9758C255.264 83.5959 255.294 84.238 255.551 84.7814C256.179 86.2552 257.996 86.7742 259.558 87.1862C259.785 87.2329 260.041 87.34 260.268 87.3867C261.234 87.6943 262.114 88.1116 262.825 88.603C263.735 89.2261 264.076 89.6597 263.963 90C263.681 90.5597 262.689 90.919 261.952 91.2399L261.838 91.2892C260.563 91.7719 259.626 91.8156 259.143 91.3709C258.574 90.8906 257.893 91.0414 257.554 91.4804C257.214 91.9194 257.244 92.4161 257.699 92.8003C258.325 93.4015 259.205 93.6733 260.17 93.69C261.135 93.7067 262.298 93.4188 263.545 92.8758C264.565 92.4314 265.84 91.6579 266.15 90.5768C266.29 90.006 266.204 89.3886 265.89 88.8698Z" fill="#82D0E4"/>
<path d="M269.146 86.936C270.213 87.4331 271.395 87.4362 272.519 87.4645C273.701 87.4676 274.912 87.5321 276.036 87.5604C277.621 87.5357 277.413 85.0348 275.885 85.0343C274.704 85.0312 273.522 85.0281 272.34 85.0249C271.245 85.0581 270.063 85.055 269.027 85.5069C268.566 85.7077 268.626 86.7181 269.146 86.936Z" fill="#82D0E4"/>
<path d="M197.745 89.1488C198.583 89.8947 199.881 89.8475 200.861 89.8645C202.044 89.8676 203.14 89.8344 204.293 89.776C206.138 89.7122 205.929 86.7654 204.084 86.8292C202.93 86.8876 201.806 87.0074 200.653 87.0658C199.643 87.1354 198.288 87.2077 197.627 88.0148C197.397 88.2633 197.398 88.8554 197.745 89.1488Z" fill="#82D0E4"/>
<path d="M166.461 113.799C166.416 114.766 165.827 115.612 164.965 115.803C163.44 116.183 160.764 116.653 157.254 116.903C153.349 117.155 151.027 117.046 149.774 116.89C148.95 116.813 148.331 116.036 148.318 115.049C148.318 115.049 147.875 91.1824 147.933 83.2048C148.032 74.6101 149.177 48.841 149.177 48.841C149.164 47.8542 149.893 46.9859 150.754 46.7952C152.395 46.4554 155.211 45.9639 158.22 45.8207C161.254 45.6157 164.168 45.7198 165.873 45.8936C166.779 45.9287 167.398 46.7059 167.411 47.6927C167.411 47.6927 167.533 73.4123 167.434 82.007C167.261 89.9442 166.461 113.799 166.461 113.799Z" fill="#F6CF3C"/>
<path d="M133.129 52.1468C133.145 51.0982 133.817 50.207 134.675 50.0127C135.892 49.7324 138.034 49.4216 141.504 49.22C144.58 49.0226 146.751 49.1432 148.112 49.3342C148.988 49.4276 149.577 50.2642 149.561 51.3128C149.561 51.3128 149.078 73.9115 148.874 81.4997C148.616 89.5613 147.681 113.83 147.681 113.83C147.665 114.879 146.969 115.832 146.054 116.006C144.305 116.313 141.525 116.754 139.397 116.859C137.466 116.962 134.567 116.869 132.789 116.745C131.889 116.713 131.243 115.857 131.282 114.746C131.282 114.746 131.66 92.2512 131.904 83.5524C132.197 73.044 133.129 52.1468 133.129 52.1468Z" fill="#179AAA"/>
<path d="M134.636 107.331L135.774 70.2223C135.785 69.5222 136.256 68.9819 136.847 68.9756L145.599 68.4907C146.132 68.4644 146.588 68.9741 146.578 69.6742L145.459 106.227C145.449 106.927 144.978 107.468 144.387 107.474L135.159 108.005C134.986 107.945 134.641 107.825 134.636 107.331ZM134.308 109.188L145.414 108.533C145.947 108.507 146.442 107.905 146.486 107.287L147.641 68.2835C147.651 67.5835 147.253 67.0937 146.662 67.1L135.835 67.7101C135.301 67.7364 134.806 68.3387 134.762 68.9567L133.603 108.31C133.607 108.804 133.89 109.254 134.308 109.188Z" fill="white"/>
<path d="M147.068 53.5988C146.582 53.2839 146.239 52.9464 145.678 52.8237C145.117 52.7009 144.591 52.663 144.005 52.6044C142.893 52.5078 141.841 52.432 140.764 52.4202C138.585 52.4608 136.297 52.6087 134.159 53.2448C133.33 53.4649 133.441 55.1026 134.305 54.9673C135.371 54.8302 136.428 54.5442 137.436 54.3863C138.503 54.2492 139.545 54.1761 140.562 54.1671C141.58 54.1581 142.657 54.1699 143.709 54.2457C144.175 54.2628 144.677 54.3648 145.143 54.382C145.729 54.4406 146.21 54.2449 146.786 54.1546C147.193 54.151 147.341 53.7666 147.068 53.5988Z" fill="white"/>
<path d="M145.249 103.771C144.811 103.328 144.201 103.334 143.591 103.339C142.921 103.324 142.251 103.308 141.521 103.272C140.181 103.242 138.757 103.254 137.417 103.224C136.544 103.21 136.51 104.87 137.409 104.82C138.748 104.85 140.054 104.796 141.394 104.827C142.064 104.842 142.674 104.837 143.369 104.788C143.92 104.762 144.649 104.798 145.145 104.389C145.338 104.239 145.402 103.898 145.249 103.771Z" fill="white"/>
<path d="M144.472 100.818C144.205 100.291 143.656 100.317 143.19 100.301C142.522 100.286 141.889 100.355 141.221 100.34C139.919 100.395 138.652 100.534 137.385 100.673C136.608 100.765 136.53 102.185 137.341 102.177C138.618 102.186 139.895 102.196 141.162 102.057C141.795 101.987 142.404 101.981 143.038 101.912C143.528 101.865 144.102 101.775 144.443 101.242C144.552 101.135 144.542 100.987 144.472 100.818Z" fill="white"/>
<path d="M142.505 98.5813C142.011 98.122 141.32 98.1706 140.629 98.2193C139.938 98.268 139.143 98.0646 138.541 98.5764C138.18 98.8118 138.195 99.4655 138.502 99.7158C139.079 100.132 139.904 99.9135 140.619 99.8013C141.251 99.7321 141.977 99.7674 142.52 99.235C142.653 99.0651 142.658 98.7064 142.505 98.5813Z" fill="white"/>
<path d="M120.433 114.451C120.372 115.62 121.164 116.596 122.208 116.75C123.081 116.844 124.206 116.956 125.46 116.903C126.852 116.828 127.935 116.715 128.707 116.565C129.837 116.328 130.691 115.296 130.752 114.127L133.613 40.6357C133.675 39.4671 132.826 38.4711 131.7 38.3589C130.942 38.3047 129.874 38.2125 128.539 38.3072C127.146 38.382 126.121 38.5147 125.349 38.6656C124.219 38.9018 123.308 39.9146 123.28 41.1649L120.433 114.451Z" fill="#FFA27A"/>
<path d="M131.889 44.1143C131.419 43.5894 130.608 43.5969 129.88 43.5613C129.094 43.505 128.307 43.4488 127.555 43.4769C125.967 43.5764 124.295 43.7189 122.771 44.347C121.752 44.7163 122.089 46.2799 123.143 45.9949C124.652 45.5787 126.101 45.1418 127.63 45.0218C128.323 44.973 129.099 44.8811 129.827 44.9168C130.495 44.9317 131.197 45.0311 131.845 44.7498C131.979 44.5792 131.959 44.283 131.889 44.1143Z" fill="#F27E5A"/>
<path d="M131.778 47.2541C131.162 46.7483 130.313 46.6705 129.464 46.5926C128.614 46.5147 127.825 46.4576 126.951 46.4439C126.077 46.4301 125.238 46.5012 124.399 46.5723C123.763 46.6417 122.507 46.5673 122.15 47.3157C122.051 47.5721 122.037 47.7852 122.226 47.9965C122.673 48.589 123.72 48.154 124.381 48.0206C125.22 47.9495 125.999 47.8576 126.814 47.8506C127.628 47.8436 128.442 47.8365 129.291 47.9144C130.021 47.9507 130.821 48.1568 131.566 47.98C131.794 47.9142 131.967 47.4654 131.778 47.2541Z" fill="#F27E5A"/>
<path d="M128.345 52.2342C128.531 50.735 126.484 50.8805 125.641 51.5129C125.012 51.9352 124.578 52.7091 124.685 53.4567C124.758 54.1214 125.22 54.6366 125.781 54.9013C127.101 55.4286 128.671 54.1233 128.774 52.6666C128.779 52.313 128.75 51.8765 128.423 51.6927C128.155 51.529 127.873 51.5735 127.634 51.8463C127.18 52.3292 127.521 53.1576 126.892 53.5798C126.346 53.9597 125.557 53.2606 126.035 52.7151C126.43 52.212 127.195 52.1211 127.541 52.5959C127.877 52.9252 128.316 52.6504 128.345 52.2342Z" fill="#F27E5A"/>
<path d="M127.733 58.0348C127.757 57.9725 127.747 57.8277 127.713 57.7452C127.665 57.8699 127.64 57.9322 127.592 58.0569C127.699 57.9524 127.713 57.7452 127.645 57.5803C127.611 57.4978 127.577 57.4154 127.519 57.3952C127.553 57.4777 127.611 57.4978 127.645 57.5803C127.616 57.1459 127.009 57.0068 126.621 57.1554C126.233 57.304 125.889 57.6799 125.86 58.0941C125.772 58.4882 125.884 58.8804 126.185 59.1259C126.369 59.3311 126.602 59.4117 126.908 59.3053C127.214 59.1989 127.451 58.9275 127.49 58.6581C127.674 58.0147 126.825 57.6502 126.466 58.2332C126.466 58.2332 126.49 58.1709 126.549 58.191C126.359 58.3377 126.359 58.3377 126.549 58.191C126.689 58.169 126.748 58.1891 126.888 58.1671C126.772 58.1268 127.063 58.2275 126.947 58.1872C127.005 58.2074 126.981 58.2697 126.947 58.1872C126.937 58.0424 126.947 58.1872 126.947 58.1872C126.981 58.2697 126.947 58.1872 126.971 58.1249C126.995 58.0626 126.947 58.1872 126.971 58.1249C126.995 58.0626 126.922 58.2495 126.971 58.1249L126.947 58.1872C126.947 58.1872 126.947 58.1872 126.971 58.1249C126.971 58.1249 126.971 58.1249 126.947 58.1872C126.947 58.1872 126.947 58.1872 126.971 58.1249C126.888 58.1671 126.971 58.1249 126.971 58.1249L127.053 58.0827C126.913 58.1047 127.194 58.0607 127.112 58.1028C127.053 58.0827 127.17 58.123 127.17 58.123C127.228 58.1431 127.31 58.1009 127.369 58.1211C127.31 58.1009 127.228 58.1431 127.17 58.123C127.286 58.1633 127.112 58.1028 127.228 58.1431C127.344 58.1834 127.461 58.2237 127.568 58.1192C127.451 58.0789 127.369 58.1211 127.228 58.1431L127.286 58.1633C127.412 58.3483 127.718 58.2419 127.733 58.0348Z" fill="#F27E5A"/>
<path d="M131.587 108.866C130.941 108.787 130.281 108.92 129.585 108.969C128.889 109.017 128.134 109.045 127.463 109.029C125.977 109.02 124.566 108.819 123.228 108.425C122.428 108.219 121.968 109.587 122.828 109.815C124.309 110.186 125.78 110.408 127.351 110.374C128.106 110.346 128.802 110.297 129.606 110.141C130.327 110.029 131.132 109.873 131.772 109.441C131.822 109.312 131.826 108.95 131.587 108.866Z" fill="#F27E5A"/>
<path d="M131.859 111.84C131.626 111.397 130.8 111.617 130.37 111.684C129.653 111.797 128.851 111.952 128.134 112.065C126.58 112.249 125.017 112.284 123.552 112.065C122.587 111.947 122.138 113.454 123.103 113.572C124.83 113.811 126.537 113.752 128.342 113.439C129.144 113.284 130.005 113.149 130.821 112.781C130.905 112.738 132.057 112.198 131.859 111.84Z" fill="#F27E5A"/>
<path d="M80.1602 92.4292C77.4906 92.4219 75.2193 90.7978 75.0588 88.7011L74.6613 83.6724C74.5223 81.6407 76.5704 79.9716 79.1577 79.9315L115.756 79.9034L115.676 78.855C114.939 78.6414 114.244 78.5581 113.428 78.5103L22.2986 78.5808C19.0385 78.6027 16.4862 80.5619 16.6722 82.937L17.1578 89.4405C17.3438 91.8157 20.1308 93.7895 23.3909 93.7675L114.52 93.697C115.315 93.6796 116.088 93.5971 116.757 93.402L116.676 92.3536L80.1602 92.4292Z" fill="#60C697"/>
<path d="M80.4092 91.7158C77.7454 91.7087 75.4794 90.0929 75.3194 88.0067L74.9233 83.0034C74.7848 80.9821 76.8285 79.3212 79.4101 79.2812L115.724 79.2397L115.597 77.8548L57.8732 77.9391C54.6203 77.9611 52.0735 79.9104 52.2589 82.2736L52.7427 88.7443C52.928 91.1075 55.7088 93.0712 58.9617 93.0492L116.686 92.9648L116.559 91.5799L80.4092 91.7158Z" fill="#60C697"/>
<path d="M115.182 79.294L59.2631 79.3372C56.4757 79.3654 54.3482 80.9818 54.5083 83.0715L54.9049 88.0835C55.0435 90.1083 57.3937 91.7742 60.2026 91.811L116.121 91.7678C116.121 91.7678 113.435 89.4878 113.079 85.6034C112.637 81.4592 115.182 79.294 115.182 79.294Z" fill="#E7EFF2"/>
<path d="M53.0462 80.623C55.0947 80.7414 57.1181 80.5785 59.1234 80.5653C61.1288 80.5521 63.2132 80.3712 65.2149 80.1425C69.2615 79.8168 73.3908 79.5389 77.4411 79.4286C85.6422 79.1062 93.8506 79.2148 102.124 79.5209C106.792 79.6617 111.443 79.9521 116.093 80.2425C117.732 80.3372 117.545 77.7216 115.906 77.6269C99.3127 76.6675 82.7484 76.205 66.3787 77.562C64.0894 77.731 61.7607 77.9838 59.4967 78.4342C58.3754 78.6923 57.3369 78.9982 56.2157 79.2563C55.0944 79.5143 54.0343 79.7544 52.9562 80.1442C52.6508 80.2342 52.7192 80.6471 53.0462 80.623Z" fill="#60C697"/>
<path d="M19.7806 94.1087C19.641 93.8779 19.5216 93.7092 19.4405 93.4611L19.3819 93.4784C19.5216 93.7092 19.6613 93.9399 19.7806 94.1087C19.8595 94.1534 19.8009 94.1707 19.7806 94.1087Z" fill="#F3B953"/>
<path d="M18.3263 91.6158C18.9804 92.791 20.1583 93.5246 21.4292 93.7271C22.9263 94.0072 24.3802 94.156 25.8341 94.3048C29.0291 94.6621 32.2636 94.9357 35.4765 95.1438C42.0853 95.5062 48.6472 95.5225 55.1876 95.4732C61.8105 95.4717 68.3687 95.2732 74.9522 95.3552C81.5967 95.4192 88.198 95.3521 94.8782 95.1178C98.5145 94.9857 102.233 94.9012 105.887 94.62C107.725 94.5121 109.603 94.3208 111.44 94.2129C113.339 94.0872 115.321 94.0092 117.112 93.5553C118.475 93.2268 117.95 91.2222 116.579 91.1211C114.92 90.9604 113.309 91.1458 111.736 91.2476C110.103 91.3673 108.509 91.4035 106.855 91.4576C103.628 91.6134 100.401 91.7693 97.1519 91.8596C90.6764 92.1058 84.1576 92.2207 77.6567 92.1864C71.2168 92.1342 64.8201 92.2133 58.4018 92.2268C51.944 92.3238 45.5473 92.4029 39.0642 92.2194C35.4853 92.1189 31.9241 91.8691 28.3415 91.5538C26.6219 91.411 24.8592 91.1369 23.0571 90.9464C22.5042 90.8929 21.8904 90.8572 21.3985 90.7857C20.8241 90.6665 20.2534 90.7621 19.7757 90.3267C18.8635 89.5871 17.798 90.6195 18.3263 91.6158Z" fill="#60C697"/>
<path d="M18.7596 82.1585C18.1375 82.4083 17.6569 82.8916 17.2554 83.4205C16.8539 83.9494 16.394 84.4953 16.1509 85.1153C15.6101 86.5773 15.7197 88.2618 15.8669 89.8666C16.0311 91.3291 16.6628 92.6555 17.875 93.6068C18.9082 94.4044 20.7085 95.3903 21.8074 94.4523C22.0581 94.242 22.0298 93.7696 21.8884 93.5362C21.2643 92.6195 19.9334 92.6639 19.0586 91.9576C18.0462 91.2227 17.8897 90.1698 17.7707 89.0374C17.6311 87.8423 17.5292 86.5675 18.0361 85.39C18.4884 84.4344 19.4912 83.5931 19.2139 82.3694C19.1724 82.2442 18.8764 82.1244 18.7596 82.1585Z" fill="#60C697"/>
<path d="M17.9811 86.5606C17.51 85.3265 18.2433 83.8817 19.0701 83.132C20.1594 82.1604 21.8348 81.9553 23.3484 81.8703C27.1522 81.6157 31.0207 81.5588 34.8677 81.4359C42.7054 81.2202 50.5467 81.2201 58.4312 81.3519C60.5812 81.3682 62.7528 81.4504 64.9027 81.4668C65.9885 81.5079 67.0527 81.4831 68.1385 81.5242C68.6706 81.5118 69.2638 81.4814 69.7744 81.4031C70.346 81.3068 70.8529 81.0127 71.4857 80.8984C72.0573 80.8021 71.9386 79.8254 71.4244 79.6879C70.9103 79.5505 70.4357 79.3291 69.9215 79.1917C69.4074 79.0543 68.7926 79.0188 68.2605 79.0312C67.1747 78.9901 66.1105 79.0149 65.0247 78.9737C62.9359 78.9394 60.8686 78.9709 58.8408 78.9186C54.6847 78.9158 50.5896 78.895 46.4551 78.9581C42.2378 78.9733 38.0421 79.0544 33.7853 79.1536C31.718 79.1851 29.6723 79.2826 27.6265 79.3801C25.7031 79.4415 23.7796 79.5029 21.9209 79.762C20.0621 80.0211 18.189 80.6458 17.0063 82.1508C15.9459 83.6198 15.7519 85.4837 16.9457 87.0828C17.2622 87.6399 18.2185 87.2856 17.9811 86.5606Z" fill="#60C697"/>
<path d="M61.3195 79.4176C60.2996 79.0887 59.1903 79.2705 58.1996 79.4181C57.23 79.6288 56.184 80.0002 55.4003 80.5728C53.4009 81.9815 52.8486 84.219 52.7363 86.6066C52.6802 87.8004 52.6241 88.9941 52.9447 90.1484C53.3076 91.4289 54.2804 92.3948 55.3677 93.1199C57.1614 94.4028 60.796 96.3317 62.3854 94.2796C62.6566 93.9241 62.6445 93.3042 62.1622 93.0279C61.6206 92.7687 61.3201 92.6477 60.7614 92.532C60.3424 92.4452 59.843 92.3123 59.4029 92.1623C58.4633 91.8795 57.6595 91.419 56.8344 90.8953C56.1702 90.4637 55.6838 89.9808 55.4898 89.2056C55.3128 88.2869 55.373 87.2998 55.395 86.3929C55.4812 84.7056 55.8719 83.3459 57.2444 82.3954C58.5787 81.5252 60.3652 81.4249 61.5387 80.4626C61.9114 80.2164 61.84 79.6136 61.3195 79.4176Z" fill="#60C697"/>
<path d="M49.0004 82.0172C48.3789 81.9261 47.4971 81.8433 46.9587 82.2085C46.7775 82.0561 46.6167 81.9662 46.3768 82.0371C45.2578 82.4366 44.9852 83.6161 44.7316 84.6527C44.4985 85.7519 44.4658 86.8605 44.5734 87.9963C44.6606 89.0695 44.8295 90.3933 45.3964 91.3247C46.146 92.6142 47.6043 92.0458 48.7042 91.7893C49.1839 91.6475 49.601 91.1121 49.5574 90.5755C49.4294 89.377 49.4008 88.0805 49.4131 86.9092C49.4254 85.7379 49.4568 84.4236 49.8099 83.2889C49.9871 82.8244 49.5619 82.1259 49.0004 82.0172Z" fill="#E7EFF2"/>
<path d="M19.5834 90.6353C20.1822 91.0333 21.0385 90.9979 21.7337 91.0812C22.5506 91.1289 23.3067 91.1945 24.1021 91.1769C25.6536 91.2248 27.3268 91.2371 28.8528 91.0059C29.992 90.8161 29.5528 89.0819 28.4707 89.0401C26.9193 88.9922 25.3932 89.2234 23.8849 89.3061C23.172 89.3713 22.3766 89.3889 21.6637 89.454C21.0116 89.5014 20.2163 89.519 19.5896 89.8454C19.2459 90.0176 19.2535 90.4451 19.5834 90.6353Z" fill="#E7EFF2"/>
<path d="M19.6339 87.7624C21.7063 88.5861 24.2709 88.4812 26.363 88.157C26.9316 88.0626 27.3532 87.7256 27.2807 87.1042C27.2513 86.6131 26.7318 86.0506 26.2024 86.0621C25.1044 86.168 23.9456 86.2915 22.826 86.3323C21.7065 86.373 20.5869 86.4138 19.532 86.6498C18.985 86.8093 19.1614 87.5431 19.6339 87.7624Z" fill="#E7EFF2"/>
<path d="M19.5902 84.9959C20.9235 85.3942 22.4711 85.2283 23.8183 85.2643C24.4919 85.2823 25.2048 85.2171 25.9392 85.2173C26.6737 85.2175 27.3473 85.2355 28.0348 84.8913C28.4788 84.6182 28.485 83.8284 27.9293 83.5611C27.2303 83.264 26.6392 83.2935 25.9656 83.2755C25.2311 83.2753 24.4966 83.2751 23.7228 83.358C22.3579 83.4705 20.7849 83.3573 19.5494 83.8617C18.9621 84.105 18.9952 84.8117 19.5902 84.9959Z" fill="#E7EFF2"/>
<path d="M113.369 60.2028C113.369 60.2028 47.998 61.6182 25.9637 61.2013C23.9439 61.1684 22.1169 59.4606 21.8362 57.1528C21.707 56.1362 21.5569 55.0555 21.529 53.9385C21.44 52.8397 21.4121 51.7227 21.4869 50.7159C21.5324 48.3815 23.0717 46.7286 25.1109 46.6151C47.2351 45.247 112.516 45.6166 112.516 45.6166C114.515 45.5854 116.26 47.2472 116.663 49.5187C116.853 50.5171 116.963 51.6801 117.012 52.8612C117.081 54.1065 117.109 55.2235 117.034 56.2303C116.907 58.5187 115.368 60.1716 113.369 60.2028Z" fill="#F46041"/>
<path d="M57.3041 49.6735C57.4696 51.958 57.6565 54.307 57.822 56.5916C57.869 56.9314 57.8342 57.2242 57.8812 57.564C57.9538 58.1791 79.6254 58.1969 79.5528 57.5818C79.3874 55.2972 79.2004 52.9482 79.0349 50.6637C78.9879 50.3239 79.0228 50.0311 78.9757 49.6913C78.9636 49.0587 57.2315 49.0584 57.3041 49.6735Z" fill="#F9EFE8"/>
<path d="M26.4275 50.0771C25.5358 53.1395 25.6753 56.6493 26.8315 59.7913L26.4275 50.0771Z" fill="#F9EFE8"/>
<path d="M26.0008 50.049C25.4148 51.5212 25.1834 53.301 25.2398 54.9968C25.2963 56.6927 25.6082 58.5881 26.3188 60.1618C26.7029 60.9402 27.5784 60.3425 27.4085 59.6387C27.0272 58.106 26.5514 56.6693 26.4581 55.0527C26.3647 53.436 26.5062 51.9564 26.6846 50.3976C26.7125 49.91 26.1646 49.5903 26.0008 50.049Z" fill="#FDF0E8"/>
<path d="M29.4908 50.3448C29.2693 51.9792 29.0108 53.6928 29.0597 55.3837C29.1086 57.0747 29.5056 58.8675 30.3584 60.3209L29.4908 50.3448Z" fill="#F9EFE8"/>
<path d="M29.053 50.0433C28.7256 50.9601 28.5544 51.9683 28.5188 53.0052C28.4052 53.9965 28.4065 54.9543 28.4859 55.9576C28.524 56.8362 28.6978 57.7435 28.9866 58.6173C29.2547 59.4286 29.5479 60.5064 30.2141 60.9962C30.6253 61.2867 31.1959 60.9147 31.1458 60.3818C31.0133 59.5993 30.5358 58.9175 30.3089 58.231C30.0408 57.4197 29.9658 56.6203 29.8701 55.7586C29.8319 54.8801 29.8513 53.9847 29.8706 53.0894C29.9474 52.1773 30.1023 51.3108 29.986 50.3866C29.9154 49.7913 29.1961 49.5224 29.053 50.0433Z" fill="#FDF0E8"/>
<path d="M106.96 47.1228C107.543 47.3606 107.673 48.1415 107.704 48.8149C107.947 51.6783 108.018 54.5926 107.818 57.4502L106.96 47.1228Z" fill="#F9EFE8"/>
<path d="M106.742 47.3033C107.179 47.8607 107.193 48.4731 107.227 49.148C107.265 50.027 107.304 50.906 107.285 51.8018C107.325 53.639 107.286 55.4306 107.228 57.1597C107.151 58.0723 108.414 58.4571 108.434 57.5613C108.52 55.3446 108.55 53.1448 108.365 50.8704C108.306 49.9289 108.292 46.6459 106.865 46.7198C106.655 46.8494 106.623 47.1328 106.742 47.3033Z" fill="#FDF0E8"/>
<path d="M109.701 46.7605C110.959 50.0608 111.459 53.7226 111.078 57.1707L109.701 46.7605Z" fill="#F9EFE8"/>
<path d="M109.469 46.733C109.58 48.4085 110.076 50.1078 110.245 51.7665C110.455 53.5499 110.431 55.1967 110.313 56.9395C110.277 57.9751 111.575 58.4825 111.726 57.4133C112.016 55.62 111.896 53.537 111.608 51.7081C111.321 49.8793 110.841 48.0386 109.698 46.6657C109.636 46.4788 109.485 46.5916 109.469 46.733Z" fill="#FDF0E8"/>
<path d="M103.248 95.3114L49.1705 95.3306C46.5101 95.3224 43.8325 97.6607 43.5418 100.583C43.37 102.265 43.6952 106.641 44.3406 108.582C45.3907 111.541 47.9769 111.925 50.4028 112.427L104.48 112.408C104.48 112.408 101.843 109.271 101.377 103.872C100.846 98.2791 103.248 95.3114 103.248 95.3114Z" fill="#E7EFF2"/>
<path d="M105.315 112.978C104.583 112.978 103.79 112.995 103.058 112.994C101.715 112.957 100.333 113.003 98.9901 112.967C96.9757 112.912 94.9828 112.922 92.9077 112.885C88.9611 112.822 84.9753 112.843 81.0287 112.78C73.9499 112.703 54.2326 113.241 50.2645 113.113C43.5888 112.848 41.5557 98.7066 48.2229 96.3411C48.8689 96.0821 59.7084 96.062 62.2905 96.0229L73.5978 96.0092C78.8051 96.0609 83.9733 96.1951 89.1415 96.3294C91.5631 96.4082 93.9632 96.4221 96.3633 96.436C98.7027 96.4675 101.12 96.3339 103.464 96.5778C104.157 96.661 104.691 95.8651 104.597 95.1807C104.563 94.4787 103.898 93.6759 103.269 93.7874C101.241 94.0924 99.0839 94.008 96.9697 94.0533C94.8554 94.0987 92.7196 94.0791 90.5231 94.0772C86.1909 94.0558 81.8586 94.0343 77.5048 93.9479C70.8938 93.8773 64.1791 93.6945 57.5976 94.1135L47.4081 94.087L13.6074 94.093C11.5323 94.0559 9.80594 95.2695 8.92342 97.0207C8.7062 97.3686 8.54967 97.6988 8.37158 97.9641C7.84128 98.9723 7.41475 100.093 7.13115 101.243C6.54238 103.478 6.36476 105.949 6.75485 108.327C7.12735 110.852 8.22804 113.165 10.5441 114.129C10.7693 114.206 11.016 114.348 11.3018 114.407C12.6566 115.08 14.0858 115.377 15.4718 115.543C16.9401 115.757 18.3868 115.905 19.8511 115.907C22.8836 116.021 25.8729 116.006 28.9444 116.038C35.1482 116.085 41.3304 116.067 47.452 116.066C59.838 116.095 72.2631 116.041 84.6491 116.069C91.585 116.116 98.5425 116.229 105.496 116.128C107.368 116.154 107.165 112.939 105.315 112.978Z" fill="#F6CF3C"/>
<path d="M38.3047 98.9492C38.1164 99.1411 37.981 99.1122 37.8707 99.3497C37.7031 99.6039 37.6134 99.9038 37.4663 100.22C37.2663 100.758 37.0869 101.357 36.9648 101.94C36.684 103.185 36.6944 104.55 36.8195 105.882C36.9241 107.151 37.2419 108.495 37.7113 109.726C37.9173 110.349 38.238 110.94 38.5381 111.468C38.8177 111.933 39.1428 112.727 39.6268 112.859C39.8975 112.917 40.0284 112.742 40.0607 112.459C40.0886 111.972 39.5958 111.432 39.3369 111.029C39.0367 110.501 38.794 109.956 38.588 109.332C38.1598 108.226 37.8832 107.008 37.7418 105.818C37.6005 104.628 37.6519 103.45 37.8592 102.363C37.9239 101.797 38.046 101.214 38.246 100.677C38.3357 100.377 38.3886 100.156 38.4783 99.8561C38.568 99.5563 38.5062 99.3691 38.5386 99.086C38.5547 98.9445 38.3988 98.8533 38.3047 98.9492Z" fill="#E7EFF2"/>
<path d="M13.1455 99.1608C12.6875 99.4996 12.4286 100.055 12.1489 100.548C11.853 101.183 11.578 101.881 11.3608 102.562C10.9474 103.987 10.6913 105.503 10.6296 107.032C10.529 109.395 11.4885 112.276 13.2341 113.899C13.8684 114.471 14.5644 113.513 14.0088 112.988C12.3836 111.536 11.6858 109.06 11.7333 106.918C11.7789 105.531 12.0397 104.219 12.3583 102.891C12.5385 102.29 12.7187 101.688 12.9567 101.07C13.1577 100.531 13.4375 100.038 13.502 99.4695C13.5551 99.2481 13.356 99.0312 13.1455 99.1608Z" fill="#E7EFF2"/>
<path d="M33.7329 98.4221C33.2896 99.5763 33.056 100.6 32.9612 101.856C32.8867 103.174 32.9273 104.457 33.0457 105.787C33.2013 107.036 33.4347 108.331 33.8204 109.513C34.0234 110.135 34.2062 110.695 34.4667 111.3C34.7069 111.842 34.8524 112.481 35.3769 112.735C35.5326 112.826 35.7052 112.775 35.7018 112.571C35.7898 112.068 35.5902 111.649 35.3702 111.169C35.13 110.626 34.9473 110.066 34.7646 109.507C34.3788 108.325 34.1082 107.109 33.9526 105.859C33.8173 104.672 33.7598 103.529 33.8174 102.353C33.8072 101.742 33.8546 101.114 33.9799 100.532C34.0273 99.9037 34.0171 99.2929 34.0645 98.665C34.0409 98.3992 33.7871 98.2015 33.7329 98.4221Z" fill="#FDF0E8"/>
<path d="M77.4534 63.1386L78.0934 74.0767C78.1195 74.9731 78.9559 75.6995 79.9496 75.684L107.409 75.3571C107.409 75.3571 104.835 72.571 104.564 68.27C104.252 64.0503 106.525 61.2225 106.525 61.2225L79.0654 61.5494C78.1325 61.547 77.4272 62.2422 77.4534 63.1386Z" fill="#E7EFF2"/>
<path d="M84.561 62.2043L106.696 61.9532C107.103 61.9726 107.386 61.6078 107.363 61.1235L107.321 60.9954C107.318 60.5751 106.929 60.1994 106.521 60.18L76.9265 60.5389C76.9265 60.5389 31.3491 60.5167 16.1886 61.2252C13.0913 61.3722 12.4993 64.2855 12.6605 67.0455L13.0509 73.5982C13.212 76.3582 14.7324 78.1533 17.3055 78.8638C17.8978 79.039 29.2745 79.4534 42.0132 79.3232C58.8077 79.1126 78.0434 78.1775 78.0642 78.2415L107.658 77.8826C108.066 77.902 108.349 77.5373 108.326 77.0529C108.323 76.6326 107.933 76.2569 107.525 76.2375L85.3905 76.4886C84.3918 76.5042 77.903 75.4816 77.6696 71.0583L77.464 67.75C77.275 63.8751 83.6234 62.2017 84.561 62.2043Z" fill="#1A7885"/>
<path d="M28.5572 70.2382C28.8737 69.802 28.9906 69.3563 29.007 68.8034C29.0221 68.0453 28.5986 67.3487 27.9576 66.9903C27.3969 66.6768 26.7382 66.6663 26.0619 67.0035C26.0021 67.0212 25.9424 67.0389 25.9424 67.0389C25.8228 67.0743 25.7631 67.092 25.6639 67.1898C25.5648 67.2877 25.5063 67.5105 25.5076 67.7157C25.6403 69.7316 25.834 71.935 26.1269 74.0405C26.1677 74.1655 26.2084 74.2904 26.2491 74.4154C26.3496 74.5227 26.45 74.6299 26.5899 74.657C26.67 74.7018 26.7298 74.6841 26.7895 74.6664C26.8493 74.6487 26.909 74.6311 26.9688 74.6134C27.0285 74.5957 27.1481 74.5603 27.2282 74.6051C27.6071 74.5614 28.0661 74.5625 28.4437 74.3137C28.9611 74.092 29.3971 73.6204 29.5928 73.0144C29.8482 72.3908 29.8239 71.7129 29.5009 71.1235C29.2796 70.8464 28.9578 70.4621 28.5572 70.2382ZM27.5269 68.2825C27.7672 68.4169 27.8283 68.6043 27.85 68.8719C27.7929 69.2999 27.5157 69.6559 26.9589 69.9578C26.8952 69.3601 26.8518 68.8249 26.8085 68.2896C27.0869 68.1387 27.3463 68.1304 27.5269 68.2825ZM27.9459 71.3783C28.1862 71.5127 28.4673 71.772 28.5093 72.1021C28.5717 72.4947 28.2946 72.8507 28.0162 73.0017C27.7975 73.1349 27.4987 73.2233 27.2393 73.2316C27.1756 72.6339 27.0916 71.9737 27.0075 71.3136C27.4462 71.2522 27.7259 71.3064 27.9459 71.3783Z" fill="white"/>
<path d="M33.6602 66.6449C33.3409 66.6708 33.1032 66.9468 33.0855 67.2948C33.1317 68.2409 33.1779 69.187 33.1439 70.0883L33.1643 70.1508C33.1697 70.9719 33.1153 71.8106 32.8599 72.4346C32.6629 72.8357 32.5637 72.9336 32.5243 73.0138C32.4836 72.8888 32.4224 72.7012 32.4021 72.6387C32.1575 71.8884 32.0325 71.1027 31.9266 70.1743C31.8002 69.1834 31.7541 68.2373 31.7079 67.2912C31.7255 66.9432 31.4239 66.6211 31.0843 66.5845C30.7446 66.5479 30.5069 66.824 30.5096 67.2345C30.4756 68.1358 30.6019 69.1267 30.6685 70.1353C30.8356 71.2513 31.0217 72.2245 31.2268 73.055C31.3287 73.3677 31.5529 74.0554 32.1738 74.3516C32.3137 74.3787 32.4537 74.4058 32.5936 74.433C32.993 74.4519 33.3707 74.203 33.6873 73.7665C34.281 72.9738 34.3734 71.8496 34.4468 70.8681C34.4794 69.7616 34.4713 68.53 34.4034 67.3161C34.2811 66.941 33.9999 66.6814 33.6602 66.6449Z" fill="white"/>
<path d="M38.485 69.3834C38.1239 69.0794 37.6841 68.9356 37.2646 68.8543C36.985 68.8001 36.685 68.6835 36.5439 68.4513C36.4828 68.2639 36.5412 68.0411 36.7001 67.9256C36.9581 67.7122 37.3572 67.731 37.7563 67.7498L37.816 67.7321C38.1554 67.7686 38.3931 67.4928 38.3904 67.0826C38.3878 66.6724 38.0865 66.3506 37.7674 66.3766C37.1688 66.3484 36.0311 66.2743 35.5001 67.4589C35.2638 67.9399 35.2474 68.4927 35.4699 68.9748C35.6721 69.3944 35.9938 69.7786 36.5137 69.9671C36.7336 70.039 36.8938 70.1285 37.0933 70.138C37.3132 70.2098 37.4531 70.2369 37.6132 70.3265C37.8535 70.4608 38.1141 70.6577 38.2553 70.8898C38.5172 71.2918 38.9216 72.131 38.5645 72.4422C38.3662 72.6379 37.9481 72.7617 37.5897 72.8678C37.4702 72.9032 37.0317 72.9645 36.8104 72.6876C36.6693 72.4554 36.4494 72.3835 36.2702 72.4365C36.0109 72.4448 35.8724 72.6228 35.814 72.8456C35.7555 73.0684 35.7569 73.2735 35.898 73.5057C36.3608 74.1221 36.9405 74.2929 37.3993 74.2941C37.9179 74.2775 38.3157 74.0912 38.5546 74.0205C38.9131 73.9144 39.3502 73.6479 39.6069 73.2294C39.8636 72.811 39.9601 72.3029 39.8366 71.723C39.7309 70.7954 39.1867 69.9291 38.485 69.3834Z" fill="white"/>
<path d="M42.4567 72.908C42.4366 72.8458 42.4164 72.7836 42.4554 72.7038C42.4326 72.2332 42.3507 71.7802 42.348 71.3718C42.2621 70.3063 42.1762 69.2407 42.0902 68.1752L42.0701 68.113C42.0285 67.7844 42.0459 67.4382 42.0043 67.1096C41.9425 66.7188 41.6645 66.4607 41.3488 66.4865C41.0331 66.5123 40.798 66.7869 40.7805 67.1331C40.9107 68.9356 41.0611 70.8003 41.2115 72.6651C41.2316 72.7273 41.1926 72.8071 41.2128 72.8693C41.2141 73.0735 41.2155 73.2776 41.2759 73.4642C41.2974 73.7306 41.476 73.882 41.6547 74.0334C41.734 74.078 41.8132 74.1226 41.9314 74.0874C42.0698 74.1143 42.1679 74.0169 42.2861 73.9817C42.4433 73.8667 42.501 73.6449 42.4796 73.3785C42.4782 73.1744 42.4379 73.05 42.4567 72.908Z" fill="white"/>
<path d="M46.7949 66.0858C46.614 65.9335 46.3746 66.0043 46.1556 66.1377C45.9965 66.2534 45.8782 66.4942 45.8795 66.6996L46.1827 70.2456C45.8182 69.5302 45.4741 68.8774 45.13 68.2246C44.907 67.7418 44.6037 67.2142 44.4201 66.6511C44.2582 66.356 43.9373 66.1765 43.638 66.265C43.3986 66.3358 43.2408 66.6569 43.2626 66.9249L43.283 66.9874C43.4299 68.0416 43.5169 69.1134 43.6433 70.105C43.7902 71.1591 43.8772 72.231 44.0241 73.2851C44.0663 73.6156 44.3682 73.9379 44.6878 73.9119C45.0673 73.8683 45.3054 73.5921 45.2428 73.199C45.1163 72.2074 44.9899 71.2158 44.9437 70.2691C45.3286 71.0471 45.7733 71.8073 46.1582 72.5852L46.2996 72.8178C46.4207 72.9877 46.4819 73.1754 46.6029 73.3454C46.7648 73.6405 47.0654 73.7574 47.3048 73.6866C47.604 73.5981 47.7223 73.3573 47.74 73.0091L47.2383 66.6406C47.0969 66.408 46.9554 66.1755 46.7949 66.0858Z" fill="white"/>
<path d="M51.5185 66.0423C50.559 65.9148 49.6402 65.9124 48.7419 65.9725C48.5421 65.9631 48.3831 66.0787 48.3042 66.2391C48.205 66.3371 48.2064 66.5424 48.1873 66.6851C48.273 67.5512 48.3586 68.4173 48.4238 69.2208C48.5121 70.4975 48.6004 71.7741 48.8287 73.0779C48.8709 73.4083 49.1522 73.6679 49.4322 73.7222C49.5721 73.7494 49.7719 73.7588 49.8915 73.7234C50.1511 73.7152 50.3509 73.7246 50.5507 73.7341C50.9299 73.6904 51.2697 73.727 51.589 73.7011C51.7888 73.7105 52.0076 73.5772 52.0865 73.4168C52.2251 73.2386 52.2034 72.9708 52.062 72.7383C51.9207 72.5059 51.7399 72.3536 51.5401 72.3442C51.1406 72.3253 50.7614 72.3689 50.3618 72.35C50.162 72.3406 49.9826 72.3937 49.7828 72.3842C49.6782 71.6609 49.5939 71.0002 49.5695 70.3217C50.0289 70.3229 50.4284 70.3418 50.8484 70.4233C51.0686 70.4953 51.2874 70.3619 51.426 70.1838C51.5646 70.0056 51.6027 69.7201 51.5212 69.4699C51.46 69.2823 51.2792 69.1301 51.0591 69.0581C50.5589 68.9318 50.0398 68.9483 49.5206 68.9648C49.4771 68.4291 49.4132 67.8309 49.3698 67.2952C50.0289 67.3059 50.6881 67.3165 51.3078 67.4074C51.5076 67.4169 51.7468 67.3461 51.8651 67.1054C52.0037 66.9273 51.9819 66.6594 51.9004 66.4093C51.899 66.204 51.7183 66.0517 51.5185 66.0423Z" fill="white"/>
<path d="M55.5084 68.4209C55.2479 68.2242 54.9683 68.17 54.6684 68.0533C54.5884 68.0085 54.5083 67.9638 54.4486 67.9815C54.2287 67.9096 54.0483 67.7576 54.0076 67.6327C53.9465 67.4453 54.0049 67.2225 54.1637 67.107C54.3619 66.9114 54.7012 66.9479 54.9414 67.0822C55.2617 67.2613 55.5996 67.0927 55.7368 66.7097C55.8345 66.4068 55.7125 66.032 55.3922 65.8529C54.6119 65.4676 53.5153 65.5184 52.9831 66.4978C52.7863 66.8986 52.6898 67.4065 52.8322 67.8438C52.9746 68.281 53.2365 68.6828 53.6368 68.9067C53.877 69.041 54.1172 69.1754 54.3968 69.2295C54.4768 69.2743 54.5365 69.2566 54.6166 69.3014C54.9165 69.418 55.177 69.6148 55.3779 69.8293C55.7998 70.3207 55.8839 70.9807 55.668 71.524C55.5498 71.7644 55.3516 71.9601 55.0531 72.0485C54.7545 72.1369 54.4749 72.0828 54.2144 71.886C54.0339 71.734 53.7747 71.7422 53.5955 71.7953C53.4367 71.9108 53.2982 72.0888 53.2398 72.3115C53.2412 72.5166 53.3225 72.7664 53.4827 72.856C53.9033 73.1423 54.4231 73.3308 54.8818 73.332C55.2808 73.3508 55.6988 73.227 55.9961 72.9335C56.6911 72.4538 57.0238 71.4649 56.9181 70.5374C56.8734 69.7973 56.3294 68.9312 55.5084 68.4209Z" fill="white"/>
<path d="M61.1327 70.5765C60.9677 69.6676 60.5249 68.9094 59.9249 68.4715C59.5647 68.1678 59.2058 68.0689 58.8469 67.97L58.7873 67.9877C58.6478 67.9606 58.488 67.8712 58.4461 67.5415C58.4245 67.2743 58.3825 66.9446 58.5017 66.9093C58.7401 66.8386 59.0001 67.0352 59.2804 67.2942C59.4606 67.4461 59.68 67.5179 59.898 67.3848C60.1364 67.3141 60.2543 67.0739 60.253 66.8691C60.2517 66.6642 60.1705 66.4146 59.9903 66.2628C59.6301 65.959 59.2699 65.6553 58.7918 65.5918C58.2338 65.4835 57.7773 65.6873 57.5212 66.1052C57.0281 66.7987 57.1362 68.135 57.7375 68.7778C58.0381 69.0992 58.397 69.1981 58.6963 69.3146C58.7763 69.3593 58.8358 69.3417 58.9157 69.3864C59.1351 69.4582 59.3153 69.6101 59.5157 69.8243C59.6565 70.0563 59.7973 70.2882 59.8989 70.6002C60.0207 70.9746 60.0626 71.3042 60.0043 71.5267C59.9461 71.7493 59.6684 71.9 59.4896 71.953C59.3108 72.006 59.1117 71.9966 59.0318 71.9519C59.0318 71.9519 59.0318 71.9519 59.0115 71.8895C58.9493 71.4974 58.6296 71.3185 58.3113 71.3444C58.0133 71.4327 57.7966 71.7707 57.8588 72.1627C57.9414 72.6172 58.1621 72.8938 58.502 73.1352C58.7417 73.2694 59.0207 73.3235 59.339 73.2975C59.6573 73.2716 60.0352 73.228 60.2533 73.095C60.7098 72.8912 60.9861 72.5356 61.123 72.153C61.2585 71.5655 61.195 70.9686 61.1327 70.5765Z" fill="white"/>
<path d="M63.8981 69.1544C64.7148 69.2019 65.5276 69.0361 66.3226 69.0184C67.0961 68.9355 67.9951 69.0304 68.7471 68.8824C69.1338 68.8409 69.395 68.6216 69.3874 68.1949C69.4014 67.8333 69.1681 67.3295 68.8206 67.2879C67.9001 67.1278 66.944 67.264 66.0487 67.3824C65.1535 67.5009 64.3192 67.6015 63.5317 68.046C63.0663 68.2534 63.4074 69.0832 63.8981 69.1544Z" fill="#FDF0E8"/>
<path d="M18.6063 71.4137C19.3418 71.6261 20.1339 71.6091 20.8869 71.6744C21.7006 71.7221 22.4751 71.8521 23.2888 71.8998C24.0418 71.9651 24.157 70.512 23.3825 70.3819C22.5864 70.1872 21.7121 70.1571 20.92 70.1741C20.1063 70.1264 19.2927 70.0787 18.5475 70.437C18.1231 70.5602 18.0958 71.278 18.6063 71.4137Z" fill="#FDF0E8"/>
<path d="M106.111 25.5709L91.4627 25.564C90.4239 25.5861 90.3472 27.9018 90.5418 30.834L91.0735 37.9084C91.2681 40.8406 91.9108 43.1569 92.7707 43.1865L107.419 43.1934C107.419 43.1934 106.54 39.9725 106.116 34.396C105.688 28.6121 106.111 25.5709 106.111 25.5709Z" fill="#E7EFF2"/>
<path d="M96.4604 26.8084L105.566 26.7935C106.094 26.7823 106.471 26.3172 106.442 25.8281C106.391 25.2742 105.915 24.8437 105.448 24.8373L94.429 24.6971C94.429 24.6971 38.5497 23.2293 19.5575 24.9079C16.0067 25.2286 15.5869 27.7675 15.8149 31.2558L16.4792 40.6598C16.7072 44.148 17.5298 46.8237 21.1707 46.9745C41.1243 47.7891 96.8329 47.7425 96.8329 47.7425L107.061 46.9039C107.589 46.8926 107.966 46.4275 107.937 45.9385C107.886 45.3846 107.41 44.954 106.943 44.9477L97.8376 44.9625C94.9108 44.9597 92.4469 42.5476 92.1877 39.566L91.6455 32.3303C91.4039 29.2015 93.5943 26.7879 96.4604 26.8084Z" fill="#66BDC6"/>
<path d="M88.8364 25.5792C87.5662 25.5404 87.7501 27.812 87.731 28.7066C87.734 30.6207 87.7944 32.518 87.912 34.3986C88.087 36.2623 88.2621 38.1261 88.5518 39.9563C88.7547 41.3331 88.7944 43.1681 90.1191 43.9432C90.8203 44.3536 91.3348 43.2456 90.6909 42.8184C90.2234 42.5449 90.1322 41.8876 90.0455 41.4343C89.8925 40.5899 89.7602 39.8079 89.6073 38.9636C89.3426 37.3996 89.1352 35.8189 89.0058 34.2837C88.8764 32.7486 88.8249 31.2591 88.7528 29.7071C88.7557 28.954 88.6807 28.1552 88.7615 27.4477C88.7688 26.8984 89.0305 26.5483 89.1937 26.0902C89.3039 25.8528 89.029 25.5912 88.8364 25.5792Z" fill="#FDF0E8"/>
<path d="M22.0595 27.903C21.6854 27.5333 21.2055 27.605 20.8655 27.9096C20.4314 28.3102 20.3093 28.8933 20.2653 29.522C20.1083 31.1418 20.0866 32.7904 20.143 34.4847C20.1788 36.1166 20.2926 37.7941 20.4638 39.4549C20.5938 40.9908 20.6664 42.5435 20.9111 44.0459C21.1721 45.4067 21.7891 46.3214 22.8287 47.181C23.1615 47.426 23.618 48.0453 24.0199 47.928C24.4792 47.7938 24.3303 47.153 24.0917 46.8121C23.7545 46.3632 23.2288 46.1061 22.8342 45.6739C22.2835 45.1505 22.114 44.4473 21.9445 43.7441C21.6791 42.1793 21.6065 40.6265 21.4766 39.0906C21.3009 37.2259 21.1826 35.3444 21.1998 33.4917C21.198 32.5342 21.1963 31.5767 21.252 30.6024C21.3004 30.1777 21.2709 29.7073 21.3768 29.2658C21.4826 28.8243 21.7697 28.7404 22.0523 28.4526C22.2039 28.3399 22.2568 28.1191 22.0595 27.903Z" fill="#FDF0E8"/>
<path d="M38.3308 43.1224L35.0152 43.1137C33.8437 43.1069 32.7925 42.0971 32.7101 40.8761L32.0993 32.6156C32.0169 31.3946 32.9111 30.3751 34.0826 30.3819L37.3982 30.3906C38.5697 30.3973 39.621 31.4071 39.7033 32.6281L40.3141 40.8886C40.3965 42.1096 39.5023 43.1291 38.3308 43.1224Z" fill="white"/>
<path d="M74.4845 31.7017C74.2449 33.0713 74.4318 34.5898 74.5775 35.9836C74.7438 37.4397 74.9674 38.8791 75.3057 40.2849C75.4999 41.254 76.8762 40.8515 76.6247 39.8991C76.2864 38.4933 76.0833 37.1163 75.8803 35.7393C75.6978 34.4247 75.6874 33.0598 75.427 31.6996C75.3564 31.1047 74.5697 31.198 74.4845 31.7017Z" fill="#FDF0E8"/>
<path d="M78.472 31.8957C78.0093 32.784 78.1356 34.1172 78.2159 35.1213C78.2801 36.267 78.4801 37.4418 78.7376 38.5997C78.9537 39.6327 80.3921 39.2136 80.176 38.1806C79.9599 37.1476 79.7231 36.0521 79.6221 34.9856C79.5049 34.0607 79.5558 32.8814 79.1302 31.9779C78.9692 31.6823 78.6194 31.5787 78.472 31.8957Z" fill="#FDF0E8"/>
<path d="M82.1144 33.3517C81.4258 33.9634 81.7345 35.4577 82.2404 36.2067C82.4828 36.5499 82.916 36.7003 83.2441 36.5368C83.5722 36.3733 83.8163 35.9587 83.611 35.5361C83.4268 35.1762 83.2426 34.8162 83.1375 34.5023C83.0325 34.1884 82.9646 33.795 82.8013 33.4978C82.6963 33.1839 82.3051 33.159 82.1144 33.3517Z" fill="#FDF0E8"/>
</svg>
